<?xml version="1.0" standalone="no"?>
<!DOCTYPE svg PUBLIC "-//W3C//DTD SVG 20010904//EN"
 "http://www.w3.org/TR/2001/REC-SVG-20010904/DTD/svg10.dtd">
<svg version="1.0" xmlns="http://www.w3.org/2000/svg"
 width="512.000000pt" height="512.000000pt" viewBox="0 0 512.000000 512.000000"
 preserveAspectRatio="xMidYMid meet">
<metadata>
Created by potrace 1.14, written by Peter Selinger 2001-2017
</metadata>
<g transform="translate(0.000000,512.000000) scale(0.100000,-0.100000)"
fill="#000000" stroke="none">
<path d="M2484 5027 c-53 -20 -100 -58 -130 -106 -28 -45 -29 -50 -32 -203
l-4 -158 -57 0 c-86 0 -143 -24 -195 -81 -53 -59 -66 -105 -66 -232 0 -104
-12 -151 -44 -183 -31 -29 -46 -36 -169 -78 -59 -20 -136 -50 -170 -67 -286
-144 -491 -408 -556 -719 -25 -124 -24 -465 3 -573 34 -140 69 -220 158 -365
76 -124 120 -251 132 -385 5 -47 3 -57 -10 -57 -27 0 -119 -101 -132 -147 -9
-30 -12 -143 -12 -402 1 -411 2 -414 81 -485 54 -48 102 -66 183 -66 l56 0 0
-216 c0 -245 5 -275 62 -339 46 -52 83 -72 149 -81 77 -10 135 11 195 70 68
69 74 97 74 355 l0 211 160 0 160 0 0 -213 c0 -247 8 -290 67 -351 64 -66 142
-88 235 -65 41 9 63 23 103 63 70 71 75 93 75 350 l0 216 160 0 160 0 1 -220
c1 -121 2 -223 3 -227 18 -81 93 -161 171 -183 121 -34 243 31 292 155 7 19
12 107 12 251 l1 221 78 5 c96 6 154 38 203 112 l34 51 3 369 c3 435 2 448
-81 521 -27 25 -55 45 -63 45 -27 0 2 176 51 299 12 31 51 106 87 167 135 230
168 357 166 652 0 168 -12 258 -49 372 -83 258 -273 481 -514 603 -38 20 -123
54 -187 76 -143 49 -151 53 -179 93 -20 28 -24 48 -30 172 -7 155 -14 175 -75
238 -42 44 -110 68 -190 68 l-52 0 -4 158 c-5 174 -10 191 -75 254 -63 61
-162 84 -239 55z m115 -162 c37 -19 41 -36 41 -182 l0 -123 -80 0 -80 0 0 125
c0 92 4 134 15 155 22 42 55 51 104 25z m309 -471 c31 -9 52 -53 52 -109 l0
-45 -400 0 -400 0 0 45 c0 48 20 99 42 108 19 8 679 8 706 1z m-608 -351 c-5
-21 -11 -56 -14 -78 -3 -22 -8 -51 -10 -65 -3 -14 -7 -43 -11 -65 -11 -76 -10
-75 -80 -75 l-65 0 -120 -160 -120 -160 -100 0 -100 0 0 -400 0 -400 240 0
240 0 0 320 0 320 80 0 80 0 0 -320 0 -320 240 0 240 0 0 320 0 320 80 0 80 0
0 -320 0 -320 240 0 240 0 0 400 0 400 -100 0 -100 0 -120 160 -120 160 -68 0
c-67 0 -68 0 -70 28 -1 15 -7 53 -13 85 -5 32 -12 73 -14 92 -3 19 -9 53 -14
75 l-9 40 82 0 82 0 13 -37 c17 -46 90 -126 139 -151 20 -10 82 -34 137 -52
280 -92 457 -238 568 -470 68 -143 82 -218 82 -450 0 -168 -3 -217 -18 -270
-10 -36 -20 -72 -22 -80 -7 -32 -55 -130 -96 -196 -92 -150 -150 -301 -165
-428 -4 -28 -8 -58 -10 -66 -1 -8 -3 -21 -3 -27 -1 -7 -8 -13 -16 -13 -9 0
-45 60 -95 160 l-80 160 -80 0 -80 0 -80 160 -80 160 -530 0 -530 0 -80 -160
-80 -160 -80 0 -80 0 -80 -160 c-50 -100 -86 -160 -95 -160 -8 0 -15 3 -16 8
0 4 -3 28 -5 55 -7 71 -49 229 -81 299 -15 35 -54 107 -86 161 -66 109 -95
177 -123 287 -16 63 -19 109 -18 280 0 236 13 302 85 447 114 230 287 372 564
463 55 18 116 41 135 51 51 26 106 84 132 139 l23 49 81 1 82 0 -8 -37z m356
17 c1 -8 5 -33 9 -55 5 -37 8 -50 20 -115 3 -14 8 -45 11 -70 3 -25 8 -48 11
-52 5 -9 -281 -11 -289 -3 -3 4 -2 23 2 43 9 40 14 68 30 177 16 103 8 96 111
93 73 -2 93 -6 95 -18z m324 -540 l61 -80 -481 0 -481 0 61 80 61 80 359 0
359 0 61 -80z m-980 -480 l0 -240 -80 0 -80 0 0 240 0 240 80 0 80 0 0 -240z
m640 0 l0 -240 -80 0 -80 0 0 240 0 240 80 0 80 0 0 -240z m640 0 l0 -240 -80
0 -80 0 0 240 0 240 80 0 80 0 0 -240z m-250 -800 l40 -80 -510 0 -510 0 40
80 40 80 430 0 430 0 40 -80z m320 -320 l40 -80 -830 0 -830 0 40 80 40 80
750 0 750 0 40 -80z m387 -263 c16 -16 18 -47 21 -362 3 -373 0 -398 -51 -410
-12 -3 -536 -4 -1164 -3 -1081 3 -1143 4 -1160 21 -16 16 -18 47 -21 365 -3
366 -1 385 43 403 11 4 536 7 1167 6 1086 -2 1148 -3 1165 -20z m-1897 -1147
c0 -232 -5 -253 -60 -265 -36 -8 -85 17 -94 47 -3 13 -6 114 -6 226 l0 202 80
0 80 0 0 -210z m800 -2 c0 -194 -2 -215 -19 -238 -15 -19 -29 -25 -60 -25 -74
0 -76 6 -79 255 l-3 220 80 0 81 0 0 -212z m800 7 c0 -224 -7 -259 -55 -271
-35 -9 -78 9 -92 37 -9 17 -13 87 -13 232 l0 207 80 0 80 0 0 -205z"/>
<path d="M1685 1507 c-125 -49 -189 -170 -155 -292 20 -71 88 -141 158 -161
70 -21 137 -14 190 20 140 88 162 267 46 378 -64 61 -164 84 -239 55z m110
-157 c51 -19 57 -104 8 -135 -80 -53 -162 56 -93 125 22 22 46 25 85 10z"/>
<path d="M2495 1513 c-64 -15 -139 -90 -163 -162 -47 -137 53 -291 201 -308
71 -9 136 15 192 71 60 60 81 118 71 195 -8 63 -26 97 -73 143 -57 56 -148 80
-228 61z m105 -168 c59 -31 45 -126 -20 -140 -86 -19 -138 98 -62 139 35 19
46 19 82 1z"/>
<path d="M3284 1507 c-170 -67 -217 -268 -92 -396 46 -47 94 -66 168 -66 98 0
174 46 216 133 25 49 25 153 1 203 -22 45 -69 94 -110 114 -42 21 -144 28
-183 12z m116 -162 c59 -30 45 -126 -20 -140 -70 -15 -124 60 -85 118 24 38
60 45 105 22z"/>
</g>
</svg>
