999
dxfrw 0.6.3
  0
SECTION
  2
HEADER
  9
$ACADVER
  1
AC1021
  9
$DWGCODEPAGE
  3
ANSI_1252
  9
$INSBASE
 10
0
 20
0
 30
0
  9
$EXTMIN
 10
24.99999999999996
 20
6.875
 30
0
  9
$EXTMAX
 10
850
 20
355
 30
0
  9
$LIMMIN
 10
0
 20
0
  9
$LIMMAX
 10
420
 20
297
  9
$ORTHOMODE
 70
    0
  9
$REGENMODE
 70
    1
  9
$FILLMODE
 70
    1
  9
$QTEXTMODE
 70
    0
  9
$MIRRTEXT
 70
    0
  9
$LTSCALE
 40
1
  9
$ATTMODE
 70
    0
  9
$TEXTSIZE
 40
2.5
  9
$TRACEWID
 40
15.68
  9
$TEXTSTYLE
  7
STANDARD
  9
$CLAYER
  8
Line
  9
$CELTYPE
  6
BYLAYER
  9
$CECOLOR
 62
  256
  9
$CELTSCALE
 40
1
  9
$DISPSILH
 70
    0
  9
$DIMSCALE
 40
2.5
  9
$DIMASZ
 40
2.5
  9
$DIMEXO
 40
0.625
  9
$DIMDLI
 40
3.75
  9
$DIMRND
 40
0
  9
$DIMDLE
 40
0
  9
$DIMEXE
 40
1.25
  9
$DIMTP
 40
0
  9
$DIMTM
 40
0
  9
$DIMTXT
 40
2.5
  9
$DIMCEN
 40
2.5
  9
$DIMTSZ
 40
0
  9
$DIMTOL
 70
    0
  9
$DIMLIM
 70
    0
  9
$DIMTIH
 70
    0
  9
$DIMTOH
 70
    0
  9
$DIMSE1
 70
    0
  9
$DIMSE2
 70
    0
  9
$DIMTAD
 70
    1
  9
$DIMZIN
 70
    1
  9
$DIMBLK
  1

  9
$DIMASO
 70
    1
  9
$DIMSHO
 70
    1
  9
$DIMPOST
  1

  9
$DIMAPOST
  1

  9
$DIMALT
 70
    0
  9
$DIMALTD
 70
    3
  9
$DIMALTF
 40
0.03937
  9
$DIMLFAC
 40
1
  9
$DIMTOFL
 70
    1
  9
$DIMTVP
 40
0
  9
$DIMTIX
 70
    0
  9
$DIMSOXD
 70
    0
  9
$DIMSAH
 70
    0
  9
$DIMBLK1
  1

  9
$DIMBLK2
  1

  9
$DIMSTYLE
  2
STANDARD
  9
$DIMCLRD
 70
    0
  9
$DIMCLRE
 70
    0
  9
$DIMCLRT
 70
    0
  9
$DIMTFAC
 40
1
  9
$DIMGAP
 40
0.625
  9
$DIMJUST
 70
    0
  9
$DIMSD1
 70
    0
  9
$DIMSD2
 70
    0
  9
$DIMTOLJ
 70
    0
  9
$DIMTZIN
 70
    8
  9
$DIMALTZ
 70
    0
  9
$DIMALTTZ
 70
    0
  9
$DIMUPT
 70
    0
  9
$DIMDEC
 70
    4
  9
$DIMTDEC
 70
    2
  9
$DIMALTU
 70
    2
  9
$DIMALTTD
 70
    3
  9
$DIMTXSTY
  7
standard
  9
$DIMAUNIT
 70
    0
  9
$DIMADEC
 70
    2
  9
$DIMALTRND
 40
0
  9
$DIMAZIN
 70
    0
  9
$DIMDSEP
 70
    0
  9
$DIMATFIT
 70
    3
  9
$DIMFRAC
 70
    0
  9
$DIMLDRBLK
  1
STANDARD
  9
$DIMLUNIT
 70
    2
  9
$DIMLWD
 70
   -2
  9
$DIMLWE
 70
   -2
  9
$DIMTMOVE
 70
    0
  9
$DIMFXL
 40
1
  9
$DIMFXLON
 70
    0
  9
$DIMJOGANG
 40
0.7854
  9
$DIMTFILL
 70
    0
  9
$DIMTFILLCLR
 70
    0
  9
$DIMARCSYM
 70
    0
  9
$DIMLTYPE
  6

  9
$DIMLTEX1
  6

  9
$DIMLTEX2
  6

  9
$LUNITS
 70
    2
  9
$LUPREC
 70
    4
  9
$SKETCHINC
 40
1
  9
$FILLETRAD
 40
0
  9
$AUNITS
 70
    0
  9
$AUPREC
 70
    2
  9
$MENU
  1
.
  9
$ELEVATION
 40
0
  9
$PELEVATION
 40
0
  9
$THICKNESS
 40
0
  9
$LIMCHECK
 70
    0
  9
$CHAMFERA
 40
0
  9
$CHAMFERB
 40
0
  9
$CHAMFERC
 40
0
  9
$CHAMFERD
 40
0
  9
$SKPOLY
 70
    0
  9
$USRTIMER
 70
    1
  9
$ANGBASE
 50
0
  9
$ANGDIR
 70
    0
  9
$PDMODE
 70
   34
  9
$PDSIZE
 40
0
  9
$PLINEWID
 40
0
  9
$SPLFRAME
 70
    0
  9
$SPLINETYPE
 70
    2
  9
$SPLINESEGS
 70
    8
  9
$HANDSEED
  5
20000
  9
$SURFTAB1
 70
    6
  9
$SURFTAB2
 70
    6
  9
$SURFTYPE
 70
    6
  9
$SURFU
 70
    6
  9
$SURFV
 70
    6
  9
$UCSBASE
  2

  9
$UCSNAME
  2

  9
$UCSORG
 10
0
 20
0
 30
0
  9
$UCSXDIR
 10
1
 20
0
 30
0
  9
$UCSYDIR
 10
0
 20
1
 30
0
  9
$UCSORTHOREF
  2

  9
$UCSORTHOVIEW
 70
    0
  9
$UCSORGTOP
 10
0
 20
0
 30
0
  9
$UCSORGBOTTOM
 10
0
 20
0
 30
0
  9
$UCSORGLEFT
 10
0
 20
0
 30
0
  9
$UCSORGRIGHT
 10
0
 20
0
 30
0
  9
$UCSORGFRONT
 10
0
 20
0
 30
0
  9
$UCSORGBACK
 10
0
 20
0
 30
0
  9
$PUCSBASE
  2

  9
$PUCSNAME
  2

  9
$PUCSORG
 10
0
 20
0
 30
0
  9
$PUCSXDIR
 10
1
 20
0
 30
0
  9
$PUCSYDIR
 10
0
 20
1
 30
0
  9
$PUCSORTHOREF
  2

  9
$PUCSORTHOVIEW
 70
    0
  9
$PUCSORGTOP
 10
0
 20
0
 30
0
  9
$PUCSORGBOTTOM
 10
0
 20
0
 30
0
  9
$PUCSORGLEFT
 10
0
 20
0
 30
0
  9
$PUCSORGRIGHT
 10
0
 20
0
 30
0
  9
$PUCSORGFRONT
 10
0
 20
0
 30
0
  9
$PUCSORGBACK
 10
0
 20
0
 30
0
  9
$USERI1
 70
    0
  9
$USERI2
 70
    0
  9
$USERI3
 70
    0
  9
$USERI4
 70
    0
  9
$USERI5
 70
    0
  9
$USERR1
 40
0
  9
$USERR2
 40
0
  9
$USERR3
 40
0
  9
$USERR4
 40
0
  9
$USERR5
 40
0
  9
$WORLDVIEW
 70
    1
  9
$SHADEDGE
 70
    3
  9
$SHADEDIF
 70
   70
  9
$TILEMODE
 70
    1
  9
$MAXACTVP
 70
   64
  9
$PINSBASE
 10
2.548780487804887
 20
45.81097560975609
 30
0
  9
$PLIMCHECK
 70
    0
  9
$PEXTMIN
 10
0
 20
0
 30
0
  9
$PEXTMAX
 10
0
 20
0
 30
0
  9
$GRIDMODE
 70
    0
  9
$SNAPSTYLE
 70
    0
  9
$GRIDUNIT
 10
0
 20
0
  9
$PLIMMIN
 10
0
 20
0
  9
$PLIMMAX
 10
297
 20
210
  9
$UNITMODE
 70
    0
  9
$VISRETAIN
 70
    1
  9
$PLINEGEN
 70
    0
  9
$PSLTSCALE
 70
    1
  9
$TREEDEPTH
 70
 3020
  9
$CMLSTYLE
  2
Standard
  9
$CMLJUST
 70
    0
  9
$CMLSCALE
 40
20
  9
$PROXYGRAPHICS
 70
    1
  9
$MEASUREMENT
 70
    1
  9
$CELWEIGHT
370
   -1
  9
$ENDCAPS
280
    0
  9
$JOINSTYLE
280
    0
  9
$LWDISPLAY
290
    0
  9
$INSUNITS
 70
    0
  9
$HYPERLINKBASE
  1

  9
$STYLESHEET
  1

  9
$XEDIT
290
    1
  9
$CEPSNTYPE
380
    0
  9
$PSTYLEMODE
290
    1
  9
$EXTNAMES
290
    1
  9
$PSVPSCALE
 40
0.3317068640101369
  9
$OLESTARTUP
290
    0
  9
$SORTENTS
280
  127
  9
$INDEXCTL
280
    0
  9
$HIDETEXT
280
    1
  9
$XCLIPFRAME
290
    0
  9
$HALOGAP
280
    0
  9
$OBSCOLOR
 70
  257
  9
$OBSLTYPE
280
    0
  9
$INTERSECTIONDISPLAY
280
    0
  9
$INTERSECTIONCOLOR
 70
  257
  9
$DIMASSOC
280
    1
  9
$PROJECTNAME
  1

  9
$CAMERADISPLAY
290
    0
  9
$LENSLENGTH
 40
50
  9
$CAMERAHEIGHT
 40
0
  9
$STEPSPERSEC
 40
2
  9
$STEPSIZE
 40
50
  9
$3DDWFPREC
 40
2
  9
$PSOLWIDTH
 40
5
  9
$PSOLHEIGHT
 40
80
  9
$LOFTANG1
 40
1.570796326794897
  9
$LOFTANG2
 40
1.570796326794897
  9
$LOFTMAG1
 40
0
  9
$LOFTMAG2
 40
0
  9
$LOFTPARAM
 70
    7
  9
$LOFTNORMALS
280
    1
  9
$LATITUDE
 40
1
  9
$LONGITUDE
 40
1
  9
$NORTHDIRECTION
 40
0
  9
$TIMEZONE
 70
-8000
  9
$LIGHTGLYPHDISPLAY
280
    1
  9
$TILEMODELIGHTSYNCH
280
    1
  9
$SOLIDHIST
280
    1
  9
$SHOWHIST
280
    1
  9
$DWFFRAME
280
    2
  9
$DGNFRAME
280
    0
  9
$REALWORLDSCALE
290
    1
  9
$INTERFERECOLOR
 62
    1
  9
$CSHADOW
280
    0
  9
$SHADOWPLANELOCATION
 40
0
  0
ENDSEC
  0
SECTION
  2
CLASSES
  0
ENDSEC
  0
SECTION
  2
TABLES
  0
TABLE
  2
VPORT
  5
8
330
0
100
AcDbSymbolTable
 70
    1
  0
VPORT
  5
31
330
2
100
AcDbSymbolTableRecord
100
AcDbViewportTableRecord
  2
*ACTIVE
 70
    0
 10
0
 20
0
 11
1
 21
1
 12
452.4882153340902
 22
211.9518051665732
 13
0
 23
0
 14
10
 24
10
 15
10
 25
10
 16
0
 26
0
 36
1
 17
0
 27
0
 37
0
 40
515.7392561872426
 41
1.841981132075472
 42
50
 43
0
 44
0
 50
0
 51
0
 71
    0
 72
  100
 73
    1
 74
    3
 75
    0
 76
    0
 77
    0
 78
    0
281
    0
 65
    1
110
0
120
0
130
0
111
1
121
0
131
0
112
0
122
1
132
0
 79
    0
146
0
348
10020
 60
    7
 61
    5
292
1
282
    1
141
0
142
0
 63
  250
421
3358443
  0
ENDTAB
  0
TABLE
  2
LTYPE
  5
5
330
0
100
AcDbSymbolTable
 70
    4
  0
LTYPE
  5
14
330
5
100
AcDbSymbolTableRecord
100
AcDbLinetypeTableRecord
  2
ByBlock
 70
    0
  3

 72
   65
 73
    0
 40
0
  0
LTYPE
  5
15
330
5
100
AcDbSymbolTableRecord
100
AcDbLinetypeTableRecord
  2
ByLayer
 70
    0
  3

 72
   65
 73
    0
 40
0
  0
LTYPE
  5
16
330
5
100
AcDbSymbolTableRecord
100
AcDbLinetypeTableRecord
  2
Continuous
 70
    0
  3
Solid line
 72
   65
 73
    0
 40
0
  0
LTYPE
  5
32
330
5
100
AcDbSymbolTableRecord
100
AcDbLinetypeTableRecord
  2
DOT
 70
    0
  3
Dot . . . . . . . . . . . . . . . . . . . . . .
 72
   65
 73
    2
 40
6.35
 49
0
 74
    0
 49
-6.35
 74
    0
  0
LTYPE
  5
33
330
5
100
AcDbSymbolTableRecord
100
AcDbLinetypeTableRecord
  2
DOTTINY
 70
    0
  3
Dot (.15x) .....................................
 72
   65
 73
    2
 40
0.9525
 49
0
 74
    0
 49
-0.9525
 74
    0
  0
LTYPE
  5
34
330
5
100
AcDbSymbolTableRecord
100
AcDbLinetypeTableRecord
  2
DOT2
 70
    0
  3
Dot (.5x) .....................................
 72
   65
 73
    2
 40
3.175
 49
0
 74
    0
 49
-3.175
 74
    0
  0
LTYPE
  5
35
330
5
100
AcDbSymbolTableRecord
100
AcDbLinetypeTableRecord
  2
DOTX2
 70
    0
  3
Dot (2x) .  .  .  .  .  .  .  .  .  .  .  .  .
 72
   65
 73
    2
 40
12.7
 49
0
 74
    0
 49
-12.7
 74
    0
  0
LTYPE
  5
36
330
5
100
AcDbSymbolTableRecord
100
AcDbLinetypeTableRecord
  2
DASHED
 70
    0
  3
Dashed _ _ _ _ _ _ _ _ _ _ _ _ _ _ _ _ _
 72
   65
 73
    2
 40
19.05
 49
12.7
 74
    0
 49
-6.35
 74
    0
  0
LTYPE
  5
37
330
5
100
AcDbSymbolTableRecord
100
AcDbLinetypeTableRecord
  2
DASHEDTINY
 70
    0
  3
Dashed (.15x) _ _ _ _ _ _ _ _ _ _ _ _ _ _ _ _ _
 72
   65
 73
    2
 40
2.8575
 49
1.905
 74
    0
 49
-0.9525
 74
    0
  0
LTYPE
  5
38
330
5
100
AcDbSymbolTableRecord
100
AcDbLinetypeTableRecord
  2
DASHED2
 70
    0
  3
Dashed (.5x) _ _ _ _ _ _ _ _ _ _ _ _ _ _ _ _ _
 72
   65
 73
    2
 40
9.524999999999999
 49
6.35
 74
    0
 49
-3.175
 74
    0
  0
LTYPE
  5
39
330
5
100
AcDbSymbolTableRecord
100
AcDbLinetypeTableRecord
  2
DASHEDX2
 70
    0
  3
Dashed (2x) ____  ____  ____  ____  ____  ___
 72
   65
 73
    2
 40
38.09999999999999
 49
25.4
 74
    0
 49
-12.7
 74
    0
  0
LTYPE
  5
3A
330
5
100
AcDbSymbolTableRecord
100
AcDbLinetypeTableRecord
  2
DASHDOT
 70
    0
  3
Dash dot __ . __ . __ . __ . __ . __ . __ . __
 72
   65
 73
    4
 40
25.4
 49
12.7
 74
    0
 49
-6.35
 74
    0
 49
0
 74
    0
 49
-6.35
 74
    0
  0
LTYPE
  5
3B
330
5
100
AcDbSymbolTableRecord
100
AcDbLinetypeTableRecord
  2
DASHDOTTINY
 70
    0
  3
Dash dot (.15x) _._._._._._._._._._._._._._._.
 72
   65
 73
    4
 40
3.81
 49
1.905
 74
    0
 49
-0.9525
 74
    0
 49
0
 74
    0
 49
-0.9525
 74
    0
  0
LTYPE
  5
3C
330
5
100
AcDbSymbolTableRecord
100
AcDbLinetypeTableRecord
  2
DASHDOT2
 70
    0
  3
Dash dot (.5x) _._._._._._._._._._._._._._._.
 72
   65
 73
    4
 40
12.7
 49
6.35
 74
    0
 49
-3.175
 74
    0
 49
0
 74
    0
 49
-3.175
 74
    0
  0
LTYPE
  5
3D
330
5
100
AcDbSymbolTableRecord
100
AcDbLinetypeTableRecord
  2
DASHDOTX2
 70
    0
  3
Dash dot (2x) ____  .  ____  .  ____  .  ___
 72
   65
 73
    4
 40
50.8
 49
25.4
 74
    0
 49
-12.7
 74
    0
 49
0
 74
    0
 49
-12.7
 74
    0
  0
LTYPE
  5
3E
330
5
100
AcDbSymbolTableRecord
100
AcDbLinetypeTableRecord
  2
DIVIDE
 70
    0
  3
Divide ____ . . ____ . . ____ . . ____ . . ____
 72
   65
 73
    6
 40
31.75
 49
12.7
 74
    0
 49
-6.35
 74
    0
 49
0
 74
    0
 49
-6.35
 74
    0
 49
0
 74
    0
 49
-6.35
 74
    0
  0
LTYPE
  5
3F
330
5
100
AcDbSymbolTableRecord
100
AcDbLinetypeTableRecord
  2
DIVIDETINY
 70
    0
  3
Divide (.15x) __..__..__..__..__..__..__..__.._
 72
   65
 73
    6
 40
4.7625
 49
1.905
 74
    0
 49
-0.9525
 74
    0
 49
0
 74
    0
 49
-0.9525
 74
    0
 49
0
 74
    0
 49
-0.9525
 74
    0
  0
LTYPE
  5
40
330
5
100
AcDbSymbolTableRecord
100
AcDbLinetypeTableRecord
  2
DIVIDE2
 70
    0
  3
Divide (.5x) __..__..__..__..__..__..__..__.._
 72
   65
 73
    6
 40
15.875
 49
6.35
 74
    0
 49
-3.175
 74
    0
 49
0
 74
    0
 49
-3.175
 74
    0
 49
0
 74
    0
 49
-3.175
 74
    0
  0
LTYPE
  5
41
330
5
100
AcDbSymbolTableRecord
100
AcDbLinetypeTableRecord
  2
DIVIDEX2
 70
    0
  3
Divide (2x) ________  .  .  ________  .  .  _
 72
   65
 73
    6
 40
63.5
 49
25.4
 74
    0
 49
-12.7
 74
    0
 49
0
 74
    0
 49
-12.7
 74
    0
 49
0
 74
    0
 49
-12.7
 74
    0
  0
LTYPE
  5
42
330
5
100
AcDbSymbolTableRecord
100
AcDbLinetypeTableRecord
  2
BORDER
 70
    0
  3
Border __ __ . __ __ . __ __ . __ __ . __ __ .
 72
   65
 73
    6
 40
44.45
 49
12.7
 74
    0
 49
-6.35
 74
    0
 49
12.7
 74
    0
 49
-6.35
 74
    0
 49
0
 74
    0
 49
-6.35
 74
    0
  0
LTYPE
  5
43
330
5
100
AcDbSymbolTableRecord
100
AcDbLinetypeTableRecord
  2
BORDERTINY
 70
    0
  3
Border (.15x) __.__.__.__.__.__.__.__.__.__.__.
 72
   65
 73
    6
 40
6.6675
 49
1.905
 74
    0
 49
-0.9525
 74
    0
 49
1.905
 74
    0
 49
-0.9525
 74
    0
 49
0
 74
    0
 49
-0.9525
 74
    0
  0
LTYPE
  5
44
330
5
100
AcDbSymbolTableRecord
100
AcDbLinetypeTableRecord
  2
BORDER2
 70
    0
  3
Border (.5x) __.__.__.__.__.__.__.__.__.__.__.
 72
   65
 73
    6
 40
22.225
 49
6.35
 74
    0
 49
-3.175
 74
    0
 49
6.35
 74
    0
 49
-3.175
 74
    0
 49
0
 74
    0
 49
-3.175
 74
    0
  0
LTYPE
  5
45
330
5
100
AcDbSymbolTableRecord
100
AcDbLinetypeTableRecord
  2
BORDERX2
 70
    0
  3
Border (2x) ____  ____  .  ____  ____  .  ___
 72
   65
 73
    6
 40
88.89999999999999
 49
25.4
 74
    0
 49
-12.7
 74
    0
 49
25.4
 74
    0
 49
-12.7
 74
    0
 49
0
 74
    0
 49
-12.7
 74
    0
  0
LTYPE
  5
46
330
5
100
AcDbSymbolTableRecord
100
AcDbLinetypeTableRecord
  2
CENTER
 70
    0
  3
Center ____ _ ____ _ ____ _ ____ _ ____ _ ____
 72
   65
 73
    4
 40
50.8
 49
31.75
 74
    0
 49
-6.35
 74
    0
 49
6.35
 74
    0
 49
-6.35
 74
    0
  0
LTYPE
  5
47
330
5
100
AcDbSymbolTableRecord
100
AcDbLinetypeTableRecord
  2
CENTERTINY
 70
    0
  3
Center (.15x) ___ _ ___ _ ___ _ ___ _ ___ _ ___
 72
   65
 73
    4
 40
7.62
 49
4.7625
 74
    0
 49
-0.9525
 74
    0
 49
0.9525
 74
    0
 49
-0.9525
 74
    0
  0
LTYPE
  5
48
330
5
100
AcDbSymbolTableRecord
100
AcDbLinetypeTableRecord
  2
CENTER2
 70
    0
  3
Center (.5x) ___ _ ___ _ ___ _ ___ _ ___ _ ___
 72
   65
 73
    4
 40
28.575
 49
19.05
 74
    0
 49
-3.175
 74
    0
 49
3.175
 74
    0
 49
-3.175
 74
    0
  0
LTYPE
  5
49
330
5
100
AcDbSymbolTableRecord
100
AcDbLinetypeTableRecord
  2
CENTERX2
 70
    0
  3
Center (2x) ________  __  ________  __  _____
 72
   65
 73
    4
 40
101.6
 49
63.5
 74
    0
 49
-12.7
 74
    0
 49
12.7
 74
    0
 49
-12.7
 74
    0
  0
ENDTAB
  0
TABLE
  2
LAYER
  5
2
330
0
100
AcDbSymbolTable
 70
    1
  0
LAYER
  5
10
330
2
100
AcDbSymbolTableRecord
100
AcDbLayerTableRecord
  2
0
 70
    0
 62
    7
  6
CONTINUOUS
370
    0
390
F
  0
LAYER
  5
4A
330
2
100
AcDbSymbolTableRecord
100
AcDbLayerTableRecord
  2
Dimention
 70
    0
 62
   56
420
8421376
  6
CONTINUOUS
370
    0
390
F
  0
LAYER
  5
4B
330
2
100
AcDbSymbolTableRecord
100
AcDbLayerTableRecord
  2
Line
 70
    0
 62
    7
  6
CONTINUOUS
370
    0
390
F
  0
LAYER
  5
4C
330
2
100
AcDbSymbolTableRecord
100
AcDbLayerTableRecord
  2
Parts
 70
    1
 62
   96
420
32768
  6
DOTTINY
370
    0
390
F
  0
ENDTAB
  0
TABLE
  2
STYLE
  5
3
330
0
100
AcDbSymbolTable
 70
    3
  0
STYLE
  5
4D
330
2
100
AcDbSymbolTableRecord
100
AcDbTextStyleTableRecord
  2
iso3098
 70
    0
 40
0
 41
1
 50
0
 71
    0
 42
1
  3
iso3098
  4

  0
STYLE
  5
4E
330
2
100
AcDbSymbolTableRecord
100
AcDbTextStyleTableRecord
  2
Standard
 70
    0
 40
0
 41
1
 50
0
 71
    0
 42
1
  3
txt
  4

  0
ENDTAB
  0
TABLE
  2
VIEW
  5
6
330
0
100
AcDbSymbolTable
 70
    0
  0
ENDTAB
  0
TABLE
  2
UCS
  5
7
330
0
100
AcDbSymbolTable
 70
    0
  0
ENDTAB
  0
TABLE
  2
APPID
  5
9
330
0
100
AcDbSymbolTable
 70
    1
  0
APPID
  5
12
330
9
100
AcDbSymbolTableRecord
100
AcDbRegAppTableRecord
  2
ACAD
 70
    0
  0
APPID
  5
4F
330
9
100
AcDbSymbolTableRecord
100
AcDbRegAppTableRecord
  2
LibreCad
 70
    0
  0
ENDTAB
  0
TABLE
  2
DIMSTYLE
  5
A
330
0
100
AcDbSymbolTable
 70
    1
100
AcDbDimStyleTable
 71
    1
  0
DIMSTYLE
105
50
330
A
100
AcDbSymbolTableRecord
100
AcDbDimStyleTableRecord
  2
Standard
 70
    0
 40
2.5
 41
2.5
 42
0.625
 43
0.38
 44
1.25
 45
0
 46
0
 47
0
 48
0
 49
1
140
2.5
141
0.09
142
0
143
25.4
144
1
145
0
146
1
147
0.625
148
0
 71
    0
 72
    0
 73
    0
 74
    1
 75
    0
 76
    0
 77
    0
 78
    1
 79
    0
170
    0
171
    2
172
    0
173
    0
174
    0
175
    0
176
    0
177
    0
178
    0
179
    2
271
    4
272
    4
273
    2
274
    2
275
    0
276
    0
277
    2
278
    0
279
    0
280
    0
281
    0
282
    0
283
    1
284
    0
285
    0
286
    0
288
    0
289
    3
340
standard
341

371
   -2
372
   -2
  0
ENDTAB
  0
TABLE
  2
BLOCK_RECORD
  5
1
330
0
100
AcDbSymbolTable
 70
    2
  0
BLOCK_RECORD
  5
1F
330
1
100
AcDbSymbolTableRecord
100
AcDbBlockTableRecord
  2
*Model_Space
 70
    0
280
    1
281
    0
  0
BLOCK_RECORD
  5
1E
330
1
100
AcDbSymbolTableRecord
100
AcDbBlockTableRecord
  2
*Paper_Space
 70
    0
280
    1
281
    0
  0
BLOCK_RECORD
  5
51
330
1
100
AcDbSymbolTableRecord
100
AcDbBlockTableRecord
  2
*D3
 70
    0
280
    1
281
    0
  0
BLOCK_RECORD
  5
54
330
1
100
AcDbSymbolTableRecord
100
AcDbBlockTableRecord
  2
*D2
 70
    0
280
    1
281
    0
  0
BLOCK_RECORD
  5
57
330
1
100
AcDbSymbolTableRecord
100
AcDbBlockTableRecord
  2
*D1
 70
    0
280
    1
281
    0
  0
ENDTAB
  0
ENDSEC
  0
SECTION
  2
BLOCKS
  0
BLOCK
  5
20
330
1F
100
AcDbEntity
  8
0
100
AcDbBlockBegin
  2
*Model_Space
 70
    0
 10
0
 20
0
 30
0
  3
*Model_Space
  1

  0
ENDBLK
  5
21
330
1F
100
AcDbEntity
  8
0
100
AcDbBlockEnd
  0
BLOCK
  5
1C
330
1B
100
AcDbEntity
  8
0
100
AcDbBlockBegin
  2
*Paper_Space
 70
    0
 10
0
 20
0
 30
0
  3
*Paper_Space
  1

  0
ENDBLK
  5
1D
330
1F
100
AcDbEntity
  8
0
100
AcDbBlockEnd
  0
BLOCK
  5
52
330
51
100
AcDbEntity
  8
0
100
AcDbBlockBegin
  2
*D3
 70
    1
 10
0
 20
0
  3
*D3
  1

  0
LINE
  5
5A
100
AcDbEntity
  8
Dimention
  6
ByBlock
 62
    0
370
   -2
100
AcDbLine
 10
466.5624999999999
 20
100.0000000000001
 11
503.125
 21
100.0000000000001
  0
LINE
  5
5B
100
AcDbEntity
  8
Dimention
  6
ByBlock
 62
    0
370
   -2
100
AcDbLine
 10
466.5624999999999
 20
280.0000000000001
 11
503.125
 21
280.0000000000001
  0
LINE
  5
5C
100
AcDbEntity
  8
Dimention
  6
ByBlock
 62
    0
370
   -2
100
AcDbLine
 10
500
 20
100.0000000000001
 11
500
 21
280.0000000000001
  0
SOLID
  5
5D
100
AcDbEntity
  8
Dimention
  6
ByBlock
 62
    0
370
   -2
100
AcDbTrace
 10
500
 20
100.0000000000001
 30
0
 11
498.9592883555679
 21
106.2500000000001
 31
0
 12
501.0407116444321
 22
106.2500000000001
 32
0
 13
501.0407116444321
 23
106.2500000000001
 33
0
  0
SOLID
  5
5E
100
AcDbEntity
  8
Dimention
  6
ByBlock
 62
    0
370
   -2
100
AcDbTrace
 10
500
 20
280.0000000000001
 30
0
 11
501.0407116444321
 21
273.7500000000001
 31
0
 12
498.9592883555679
 22
273.7500000000001
 32
0
 13
498.9592883555679
 23
273.7500000000001
 33
0
  0
MTEXT
  5
5F
100
AcDbEntity
  8
Dimention
  6
CONTINUOUS
 62
    0
370
   -2
100
AcDbMText
 10
495.3125
 20
190.0000000000001
 30
0
 40
6.25
 41
32.63888888888889
 71
    5
 72
    1
  1
180.0000
  7
standard
210
0
220
0
230
1
 50
90
 73
    2
 44
1
  0
ENDBLK
  5
53
330
51
100
AcDbEntity
  8
0
100
AcDbBlockEnd
  0
BLOCK
  5
55
330
54
100
AcDbEntity
  8
0
100
AcDbBlockBegin
  2
*D2
 70
    1
 10
0
 20
0
  3
*D2
  1

  0
LINE
  5
60
100
AcDbEntity
  8
Dimention
  6
ByBlock
 62
    0
370
   -2
100
AcDbLine
 10
400
 20
98.4375
 11
400
 21
76.8749999999999
  0
LINE
  5
61
100
AcDbEntity
  8
Dimention
  6
ByBlock
 62
    0
370
   -2
100
AcDbLine
 10
464.9999999999999
 20
98.4375000000001
 11
464.9999999999999
 21
76.875
  0
LINE
  5
62
100
AcDbEntity
  8
Dimention
  6
ByBlock
 62
    0
370
   -2
100
AcDbLine
 10
400
 20
79.9999999999999
 11
464.9999999999999
 21
80
  0
SOLID
  5
63
100
AcDbEntity
  8
Dimention
  6
ByBlock
 62
    0
370
   -2
100
AcDbTrace
 10
400
 20
79.9999999999999
 30
0
 11
406.25
 21
81.04071164443201
 31
0
 12
406.25
 22
78.95928835556781
 32
0
 13
406.25
 23
78.95928835556781
 33
0
  0
SOLID
  5
64
100
AcDbEntity
  8
Dimention
  6
ByBlock
 62
    0
370
   -2
100
AcDbTrace
 10
464.9999999999999
 20
80
 30
0
 11
458.7499999999999
 21
78.95928835556789
 31
0
 12
458.7499999999999
 22
81.04071164443209
 32
0
 13
458.7499999999999
 23
81.04071164443209
 33
0
  0
MTEXT
  5
65
100
AcDbEntity
  8
Dimention
  6
CONTINUOUS
 62
    0
370
   -2
100
AcDbMText
 10
432.4999999999999
 20
84.68749999999997
 30
0
 40
6.25
 41
29.16666666666744
 71
    5
 72
    1
  1
65.0000
  7
standard
210
0
220
0
230
1
 50
8.768888649128711e-014
 73
    2
 44
1
  0
ENDBLK
  5
56
330
54
100
AcDbEntity
  8
0
100
AcDbBlockEnd
  0
BLOCK
  5
58
330
57
100
AcDbEntity
  8
0
100
AcDbBlockBegin
  2
*D1
 70
    1
 10
0
 20
0
  3
*D1
  1

  0
LINE
  5
66
100
AcDbEntity
  8
Dimention
  6
ByBlock
 62
    0
370
   -2
100
AcDbLine
 10
99.99999999999999
 20
33.4375
 11
99.99999999999999
 21
6.875
  0
LINE
  5
67
100
AcDbEntity
  8
Dimention
  6
ByBlock
 62
    0
370
   -2
100
AcDbLine
 10
400
 20
33.4375
 11
400
 21
6.875
  0
LINE
  5
68
100
AcDbEntity
  8
Dimention
  6
ByBlock
 62
    0
370
   -2
100
AcDbLine
 10
99.99999999999999
 20
10
 11
400
 21
10
  0
SOLID
  5
69
100
AcDbEntity
  8
Dimention
  6
ByBlock
 62
    0
370
   -2
100
AcDbTrace
 10
99.99999999999999
 20
10
 30
0
 11
106.25
 21
11.0407116444321
 31
0
 12
106.25
 22
8.959288355567898
 32
0
 13
106.25
 23
8.959288355567898
 33
0
  0
SOLID
  5
6A
100
AcDbEntity
  8
Dimention
  6
ByBlock
 62
    0
370
   -2
100
AcDbTrace
 10
400
 20
10
 30
0
 11
393.75
 21
8.959288355567899
 31
0
 12
393.75
 22
11.0407116444321
 32
0
 13
393.75
 23
11.0407116444321
 33
0
  0
MTEXT
  5
6B
100
AcDbEntity
  8
Dimention
  6
CONTINUOUS
 62
    0
370
   -2
100
AcDbMText
 10
250
 20
14.6875
 30
0
 40
6.25
 41
34.02777777777816
 71
    5
 72
    1
  1
300.0000
  7
standard
210
0
220
0
230
1
 50
0
 73
    2
 44
1
  0
ENDBLK
  5
59
330
57
100
AcDbEntity
  8
0
100
AcDbBlockEnd
  0
ENDSEC
  0
SECTION
  2
ENTITIES
  0
CIRCLE
  5
6C
100
AcDbEntity
  8
Line
  6
ByLayer
 62
  256
370
   -1
100
AcDbCircle
 10
290
 20
170
 40
9.5
  0
CIRCLE
  5
6D
100
AcDbEntity
  8
Line
  6
ByLayer
 62
  256
370
   -1
100
AcDbCircle
 10
330
 20
170
 40
9.5
  0
CIRCLE
  5
6E
100
AcDbEntity
  8
Line
  6
ByLayer
 62
  256
370
   -1
100
AcDbCircle
 10
370
 20
170
 40
8
  0
CIRCLE
  5
6F
100
AcDbEntity
  8
Line
  6
ByLayer
 62
  256
370
   -1
100
AcDbCircle
 10
250
 20
170
 40
8
  0
CIRCLE
  5
70
100
AcDbEntity
  8
Line
  6
ByLayer
 62
  256
370
   -1
100
AcDbCircle
 10
170
 20
195
 40
2
  0
LINE
  5
71
100
AcDbEntity
  8
Parts
  6
ByLayer
 62
  256
370
   -1
100
AcDbLine
 10
301
 20
245
 11
301
 21
253.5
  0
LINE
  5
72
100
AcDbEntity
  8
Parts
  6
ByLayer
 62
  256
370
   -1
100
AcDbLine
 10
301
 20
253.5
 11
236
 21
253.5
  0
LINE
  5
73
100
AcDbEntity
  8
Parts
  6
ByLayer
 62
  256
370
   -1
100
AcDbLine
 10
236
 20
253.5
 11
236
 21
236.5
  0
LINE
  5
74
100
AcDbEntity
  8
Parts
  6
ByLayer
 62
  256
370
   -1
100
AcDbLine
 10
236
 20
236.5
 11
301
 21
236.5
  0
LINE
  5
75
100
AcDbEntity
  8
Parts
  6
ByLayer
 62
  256
370
   -1
100
AcDbLine
 10
301
 20
236.5
 11
301
 21
245
  0
LINE
  5
76
100
AcDbEntity
  8
Parts
  6
ByLayer
 62
  256
370
   -1
100
AcDbLine
 10
268.5
 20
262
 11
253
 21
262
  0
LINE
  5
77
100
AcDbEntity
  8
Parts
  6
ByLayer
 62
  256
370
   -1
100
AcDbLine
 10
253
 20
262
 11
253
 21
228
  0
LINE
  5
78
100
AcDbEntity
  8
Parts
  6
ByLayer
 62
  256
370
   -1
100
AcDbLine
 10
253
 20
228
 11
284
 21
228
  0
LINE
  5
79
100
AcDbEntity
  8
Parts
  6
ByLayer
 62
  256
370
   -1
100
AcDbLine
 10
284
 20
228
 11
284
 21
262
  0
LINE
  5
7A
100
AcDbEntity
  8
Parts
  6
ByLayer
 62
  256
370
   -1
100
AcDbLine
 10
284
 20
262
 11
268.9
 21
262
  0
LINE
  5
7B
100
AcDbEntity
  8
Parts
  6
ByLayer
 62
  256
370
   -1
100
AcDbLine
 10
384
 20
245
 11
384
 21
253.5
  0
LINE
  5
7C
100
AcDbEntity
  8
Parts
  6
ByLayer
 62
  256
370
   -1
100
AcDbLine
 10
384
 20
253.5
 11
319
 21
253.5
  0
LINE
  5
7D
100
AcDbEntity
  8
Parts
  6
ByLayer
 62
  256
370
   -1
100
AcDbLine
 10
319
 20
253.5
 11
319
 21
236.5
  0
LINE
  5
7E
100
AcDbEntity
  8
Parts
  6
ByLayer
 62
  256
370
   -1
100
AcDbLine
 10
319
 20
236.5
 11
384
 21
236.5
  0
LINE
  5
7F
100
AcDbEntity
  8
Parts
  6
ByLayer
 62
  256
370
   -1
100
AcDbLine
 10
384
 20
236.5
 11
384
 21
245
  0
LINE
  5
80
100
AcDbEntity
  8
Parts
  6
ByLayer
 62
  256
370
   -1
100
AcDbLine
 10
351.5
 20
262
 11
336
 21
262
  0
LINE
  5
81
100
AcDbEntity
  8
Parts
  6
ByLayer
 62
  256
370
   -1
100
AcDbLine
 10
336
 20
262
 11
336
 21
228
  0
LINE
  5
82
100
AcDbEntity
  8
Parts
  6
ByLayer
 62
  256
370
   -1
100
AcDbLine
 10
336
 20
228
 11
367
 21
228
  0
LINE
  5
83
100
AcDbEntity
  8
Parts
  6
ByLayer
 62
  256
370
   -1
100
AcDbLine
 10
367
 20
228
 11
367
 21
262
  0
LINE
  5
84
100
AcDbEntity
  8
Parts
  6
ByLayer
 62
  256
370
   -1
100
AcDbLine
 10
367
 20
262
 11
351.9
 21
262
  0
LINE
  5
85
100
AcDbEntity
  8
Line
  6
ByLayer
 62
  256
370
   -1
100
AcDbLine
 10
260
 20
228
 11
277
 21
228
  0
LINE
  5
86
100
AcDbEntity
  8
Line
  6
ByLayer
 62
  256
370
   -1
100
AcDbLine
 10
268.5
 20
231
 11
260
 21
231
  0
LINE
  5
87
100
AcDbEntity
  8
Line
  6
ByLayer
 62
  256
370
   -1
100
AcDbLine
 10
277
 20
231
 11
268.5
 21
231
  0
ARC
  5
88
100
AcDbEntity
  8
Line
  6
ByLayer
 62
  256
370
   -1
100
AcDbCircle
 10
260
 20
229.5
 40
1.5
100
AcDbArc
 50
90
 51
206.565051177078
  0
ARC
  5
89
100
AcDbEntity
  8
Line
  6
ByLayer
 62
  256
370
   -1
100
AcDbCircle
 10
260
 20
229.5
 40
1.5
100
AcDbArc
 50
206.565051177078
 51
270
  0
ARC
  5
8A
100
AcDbEntity
  8
Line
  6
ByLayer
 62
  256
370
   -1
100
AcDbCircle
 10
277
 20
229.5
 40
1.5
100
AcDbArc
 50
270
 51
26.56505117707799
  0
ARC
  5
8B
100
AcDbEntity
  8
Line
  6
ByLayer
 62
  256
370
   -1
100
AcDbCircle
 10
277
 20
229.5
 40
1.5
100
AcDbArc
 50
0
 51
90
  0
LINE
  5
8C
100
AcDbEntity
  8
Line
  6
ByLayer
 62
  256
370
   -1
100
AcDbLine
 10
343
 20
228
 11
360
 21
228
  0
LINE
  5
8D
100
AcDbEntity
  8
Line
  6
ByLayer
 62
  256
370
   -1
100
AcDbLine
 10
351.5
 20
231
 11
343
 21
231
  0
LINE
  5
8E
100
AcDbEntity
  8
Line
  6
ByLayer
 62
  256
370
   -1
100
AcDbLine
 10
360
 20
231
 11
351.5
 21
231
  0
ARC
  5
8F
100
AcDbEntity
  8
Line
  6
ByLayer
 62
  256
370
   -1
100
AcDbCircle
 10
343
 20
229.5
 40
1.5
100
AcDbArc
 50
90
 51
206.565051177078
  0
ARC
  5
90
100
AcDbEntity
  8
Line
  6
ByLayer
 62
  256
370
   -1
100
AcDbCircle
 10
343
 20
229.5
 40
1.5
100
AcDbArc
 50
206.565051177078
 51
270
  0
ARC
  5
91
100
AcDbEntity
  8
Line
  6
ByLayer
 62
  256
370
   -1
100
AcDbCircle
 10
360
 20
229.5
 40
1.5
100
AcDbArc
 50
270
 51
26.56505117707799
  0
ARC
  5
92
100
AcDbEntity
  8
Line
  6
ByLayer
 62
  256
370
   -1
100
AcDbCircle
 10
360
 20
229.5
 40
1.5
100
AcDbArc
 50
0
 51
90
  0
LINE
  5
93
100
AcDbEntity
  8
Parts
  6
ByLayer
 62
  256
370
   -1
100
AcDbLine
 10
339
 20
106
 11
380
 21
106
  0
LINE
  5
94
100
AcDbEntity
  8
Parts
  6
ByLayer
 62
  256
370
   -1
100
AcDbLine
 10
380
 20
105
 11
339
 21
105
  0
LINE
  5
95
100
AcDbEntity
  8
Parts
  6
ByLayer
 62
  256
370
   -1
100
AcDbLine
 10
339
 20
105
 11
339
 21
106
  0
LINE
  5
96
100
AcDbEntity
  8
Parts
  6
ByLayer
 62
  256
370
   -1
100
AcDbLine
 10
380
 20
106
 11
381
 21
106
  0
LINE
  5
97
100
AcDbEntity
  8
Parts
  6
ByLayer
 62
  256
370
   -1
100
AcDbLine
 10
381
 20
106
 11
381
 21
105
  0
LINE
  5
98
100
AcDbEntity
  8
Parts
  6
ByLayer
 62
  256
370
   -1
100
AcDbLine
 10
381
 20
105
 11
380
 21
105
  0
LINE
  5
99
100
AcDbEntity
  8
Parts
  6
ByLayer
 62
  256
370
   -1
100
AcDbLine
 10
340
 20
105
 11
340
 21
100
  0
LINE
  5
9A
100
AcDbEntity
  8
Parts
  6
ByLayer
 62
  256
370
   -1
100
AcDbLine
 10
340
 20
100
 11
344
 21
100
  0
LINE
  5
9B
100
AcDbEntity
  8
Parts
  6
ByLayer
 62
  256
370
   -1
100
AcDbLine
 10
344
 20
100
 11
344
 21
105
  0
LINE
  5
9C
100
AcDbEntity
  8
Parts
  6
ByLayer
 62
  256
370
   -1
100
AcDbLine
 10
344
 20
105
 11
340
 21
105
  0
LINE
  5
9D
100
AcDbEntity
  8
Parts
  6
ByLayer
 62
  256
370
   -1
100
AcDbLine
 10
376
 20
105
 11
376
 21
100
  0
LINE
  5
9E
100
AcDbEntity
  8
Parts
  6
ByLayer
 62
  256
370
   -1
100
AcDbLine
 10
376
 20
100
 11
380
 21
100
  0
LINE
  5
9F
100
AcDbEntity
  8
Parts
  6
ByLayer
 62
  256
370
   -1
100
AcDbLine
 10
380
 20
100
 11
380
 21
105
  0
LINE
  5
A0
100
AcDbEntity
  8
Parts
  6
ByLayer
 62
  256
370
   -1
100
AcDbLine
 10
380
 20
105
 11
376
 21
105
  0
LINE
  5
A1
100
AcDbEntity
  8
Parts
  6
ByLayer
 62
  256
370
   -1
100
AcDbLine
 10
342
 20
121
 11
342
 21
122
  0
LINE
  5
A2
100
AcDbEntity
  8
Parts
  6
ByLayer
 62
  256
370
   -1
100
AcDbLine
 10
342
 20
122
 11
378
 21
122
  0
LINE
  5
A3
100
AcDbEntity
  8
Parts
  6
ByLayer
 62
  256
370
   -1
100
AcDbLine
 10
378
 20
122
 11
378
 21
121
  0
LINE
  5
A4
100
AcDbEntity
  8
Parts
  6
ByLayer
 62
  256
370
   -1
100
AcDbLine
 10
378
 20
121
 11
342
 21
121
  0
LINE
  5
A5
100
AcDbEntity
  8
Parts
  6
ByLayer
 62
  256
370
   -1
100
AcDbLine
 10
371
 20
117
 11
349
 21
117
  0
LINE
  5
A6
100
AcDbEntity
  8
Parts
  6
ByLayer
 62
  256
370
   -1
100
AcDbLine
 10
349
 20
117
 11
349
 21
121
  0
LINE
  5
A7
100
AcDbEntity
  8
Parts
  6
ByLayer
 62
  256
370
   -1
100
AcDbLine
 10
349
 20
121
 11
371
 21
121
  0
LINE
  5
A8
100
AcDbEntity
  8
Parts
  6
ByLayer
 62
  256
370
   -1
100
AcDbLine
 10
371
 20
121
 11
371
 21
117
  0
LINE
  5
A9
100
AcDbEntity
  8
Parts
  6
ByLayer
 62
  256
370
   -1
100
AcDbLine
 10
371
 20
117
 11
376
 21
117
  0
LINE
  5
AA
100
AcDbEntity
  8
Parts
  6
ByLayer
 62
  256
370
   -1
100
AcDbLine
 10
376
 20
117
 11
376
 21
106
  0
LINE
  5
AB
100
AcDbEntity
  8
Parts
  6
ByLayer
 62
  256
370
   -1
100
AcDbLine
 10
376
 20
106
 11
344
 21
106
  0
LINE
  5
AC
100
AcDbEntity
  8
Parts
  6
ByLayer
 62
  256
370
   -1
100
AcDbLine
 10
344
 20
106
 11
344
 21
117
  0
LINE
  5
AD
100
AcDbEntity
  8
Parts
  6
ByLayer
 62
  256
370
   -1
100
AcDbLine
 10
344
 20
117
 11
349
 21
117
  0
LINE
  5
AE
100
AcDbEntity
  8
Parts
  6
ByLayer
 62
  256
370
   -1
100
AcDbLine
 10
278.9995362247246
 20
105.9995362247247
 11
319.9995362247246
 21
105.9995362247247
  0
LINE
  5
AF
100
AcDbEntity
  8
Parts
  6
ByLayer
 62
  256
370
   -1
100
AcDbLine
 10
319.9995362247246
 20
104.9995362247247
 11
278.9995362247246
 21
104.9995362247247
  0
LINE
  5
B0
100
AcDbEntity
  8
Parts
  6
ByLayer
 62
  256
370
   -1
100
AcDbLine
 10
278.9995362247246
 20
104.9995362247247
 11
278.9995362247246
 21
105.9995362247247
  0
LINE
  5
B1
100
AcDbEntity
  8
Parts
  6
ByLayer
 62
  256
370
   -1
100
AcDbLine
 10
319.9995362247246
 20
105.9995362247247
 11
320.9995362247246
 21
105.9995362247247
  0
LINE
  5
B2
100
AcDbEntity
  8
Parts
  6
ByLayer
 62
  256
370
   -1
100
AcDbLine
 10
320.9995362247246
 20
105.9995362247247
 11
320.9995362247246
 21
104.9995362247247
  0
LINE
  5
B3
100
AcDbEntity
  8
Parts
  6
ByLayer
 62
  256
370
   -1
100
AcDbLine
 10
320.9995362247246
 20
104.9995362247247
 11
319.9995362247246
 21
104.9995362247247
  0
LINE
  5
B4
100
AcDbEntity
  8
Parts
  6
ByLayer
 62
  256
370
   -1
100
AcDbLine
 10
279.9995362247246
 20
104.9995362247247
 11
279.9995362247246
 21
99.99953622472465
  0
LINE
  5
B5
100
AcDbEntity
  8
Parts
  6
ByLayer
 62
  256
370
   -1
100
AcDbLine
 10
279.9995362247246
 20
99.99953622472465
 11
283.9995362247246
 21
99.99953622472465
  0
LINE
  5
B6
100
AcDbEntity
  8
Parts
  6
ByLayer
 62
  256
370
   -1
100
AcDbLine
 10
283.9995362247246
 20
99.99953622472465
 11
283.9995362247246
 21
104.9995362247247
  0
LINE
  5
B7
100
AcDbEntity
  8
Parts
  6
ByLayer
 62
  256
370
   -1
100
AcDbLine
 10
315.9995362247246
 20
104.9995362247247
 11
315.9995362247246
 21
99.99953622472465
  0
LINE
  5
B8
100
AcDbEntity
  8
Parts
  6
ByLayer
 62
  256
370
   -1
100
AcDbLine
 10
315.9995362247246
 20
99.99953622472465
 11
319.9995362247246
 21
99.99953622472465
  0
LINE
  5
B9
100
AcDbEntity
  8
Parts
  6
ByLayer
 62
  256
370
   -1
100
AcDbLine
 10
319.9995362247246
 20
99.99953622472465
 11
319.9995362247246
 21
104.9995362247247
  0
LINE
  5
BA
100
AcDbEntity
  8
Parts
  6
ByLayer
 62
  256
370
   -1
100
AcDbLine
 10
319.9995362247246
 20
104.9995362247247
 11
315.9995362247246
 21
104.9995362247247
  0
LINE
  5
BB
100
AcDbEntity
  8
Parts
  6
ByLayer
 62
  256
370
   -1
100
AcDbLine
 10
315.9995362247246
 20
105.9995362247247
 11
283.9995362247246
 21
105.9995362247247
  0
LINE
  5
BC
100
AcDbEntity
  8
Parts
  6
ByLayer
 62
  256
370
   -1
100
AcDbLine
 10
355
 20
105
 11
355
 21
100
  0
LINE
  5
BD
100
AcDbEntity
  8
Parts
  6
ByLayer
 62
  256
370
   -1
100
AcDbLine
 10
365
 20
105
 11
365
 21
100
  0
LINE
  5
BE
100
AcDbEntity
  8
Parts
  6
ByLayer
 62
  256
370
   -1
100
AcDbLine
 10
288
 20
106
 11
288
 21
131.3
  0
LINE
  5
BF
100
AcDbEntity
  8
Parts
  6
ByLayer
 62
  256
370
   -1
100
AcDbLine
 10
288
 20
131.3
 11
312
 21
131.3
  0
LINE
  5
C0
100
AcDbEntity
  8
Parts
  6
ByLayer
 62
  256
370
   -1
100
AcDbLine
 10
312
 20
131.3
 11
312
 21
106
  0
LINE
  5
C1
100
AcDbEntity
  8
Parts
  6
ByLayer
 62
  256
370
   -1
100
AcDbLine
 10
312
 20
106
 11
288
 21
106
  0
LINE
  5
C2
100
AcDbEntity
  8
Parts
  6
ByLayer
 62
  256
370
   -1
100
AcDbLine
 10
296
 20
105
 11
296
 21
100
  0
LINE
  5
C3
100
AcDbEntity
  8
Parts
  6
ByLayer
 62
  256
370
   -1
100
AcDbLine
 10
296
 20
100
 11
296
 21
105
  0
LINE
  5
C4
100
AcDbEntity
  8
Parts
  6
ByLayer
 62
  256
370
   -1
100
AcDbLine
 10
296
 20
105
 11
304
 21
105
  0
LINE
  5
C5
100
AcDbEntity
  8
Parts
  6
ByLayer
 62
  256
370
   -1
100
AcDbLine
 10
304
 20
105
 11
304
 21
100
  0
LINE
  5
C6
100
AcDbEntity
  8
Parts
  6
ByLayer
 62
  256
370
   -1
100
AcDbLine
 10
243
 20
110
 11
247
 21
110
  0
LINE
  5
C7
100
AcDbEntity
  8
Parts
  6
ByLayer
 62
  256
370
   -1
100
AcDbLine
 10
243
 20
110
 11
248
 21
110
  0
LINE
  5
C8
100
AcDbEntity
  8
Parts
  6
ByLayer
 62
  256
370
   -1
100
AcDbLine
 10
248
 20
110
 11
248
 21
111
  0
LINE
  5
C9
100
AcDbEntity
  8
Parts
  6
ByLayer
 62
  256
370
   -1
100
AcDbLine
 10
248
 20
111
 11
177
 21
111
  0
LINE
  5
CA
100
AcDbEntity
  8
Parts
  6
ByLayer
 62
  256
370
   -1
100
AcDbLine
 10
177
 20
111
 11
177
 21
110
  0
LINE
  5
CB
100
AcDbEntity
  8
Parts
  6
ByLayer
 62
  256
370
   -1
100
AcDbLine
 10
177
 20
110
 11
248
 21
110
  0
LINE
  5
CC
100
AcDbEntity
  8
Parts
  6
ByLayer
 62
  256
370
   -1
100
AcDbLine
 10
182
 20
100
 11
182
 21
110
  0
LINE
  5
CD
100
AcDbEntity
  8
Parts
  6
ByLayer
 62
  256
370
   -1
100
AcDbLine
 10
178
 20
110
 11
178
 21
100
  0
LINE
  5
CE
100
AcDbEntity
  8
Parts
  6
ByLayer
 62
  256
370
   -1
100
AcDbLine
 10
247
 20
110
 11
247
 21
100
  0
LINE
  5
CF
100
AcDbEntity
  8
Parts
  6
ByLayer
 62
  256
370
   -1
100
AcDbLine
 10
243
 20
100
 11
243
 21
110
  0
CIRCLE
  5
D0
100
AcDbEntity
  8
Line
  6
ByLayer
 62
    5
370
   -1
100
AcDbCircle
 10
271.6
 20
143
 40
1.75
  0
CIRCLE
  5
D1
100
AcDbEntity
  8
Line
  6
ByLayer
 62
    5
370
   -1
100
AcDbCircle
 10
139.5
 20
229
 40
1.75
  0
CIRCLE
  5
D2
100
AcDbEntity
  8
Line
  6
ByLayer
 62
    5
370
   -1
100
AcDbCircle
 10
200.5
 20
229
 40
1.75
  0
CIRCLE
  5
D3
100
AcDbEntity
  8
Line
  6
ByLayer
 62
    5
370
   -1
100
AcDbCircle
 10
139.5
 20
161
 40
1.75
  0
CIRCLE
  5
D4
100
AcDbEntity
  8
Line
  6
ByLayer
 62
    5
370
   -1
100
AcDbCircle
 10
200.5
 20
161
 40
1.75
  0
CIRCLE
  5
D5
100
AcDbEntity
  8
Line
  6
ByLayer
 62
    5
370
   -1
100
AcDbCircle
 10
348.4
 20
143
 40
1.75
  0
CIRCLE
  5
D6
100
AcDbEntity
  8
Line
  6
ByLayer
 62
    5
370
   -1
100
AcDbCircle
 10
348.4
 20
197
 40
1.75
  0
CIRCLE
  5
D7
100
AcDbEntity
  8
Line
  6
ByLayer
 62
    5
370
   -1
100
AcDbCircle
 10
271.6
 20
197
 40
1.75
  0
CIRCLE
  5
D8
100
AcDbEntity
  8
Line
  6
ByLayer
 62
    5
370
   -1
100
AcDbCircle
 10
250
 20
181
 40
1.75
  0
CIRCLE
  5
D9
100
AcDbEntity
  8
Line
  6
ByLayer
 62
    5
370
   -1
100
AcDbCircle
 10
250
 20
159
 40
1.75
  0
CIRCLE
  5
DA
100
AcDbEntity
  8
Line
  6
ByLayer
 62
    5
370
   -1
100
AcDbCircle
 10
290
 20
155.5
 40
1.75
  0
CIRCLE
  5
DB
100
AcDbEntity
  8
Line
  6
ByLayer
 62
    5
370
   -1
100
AcDbCircle
 10
330
 20
155.5
 40
1.75
  0
CIRCLE
  5
DC
100
AcDbEntity
  8
Line
  6
ByLayer
 62
    5
370
   -1
100
AcDbCircle
 10
370
 20
159
 40
1.75
  0
CIRCLE
  5
DD
100
AcDbEntity
  8
Line
  6
ByLayer
 62
    5
370
   -1
100
AcDbCircle
 10
370
 20
181
 40
1.75
  0
CIRCLE
  5
DE
100
AcDbEntity
  8
Line
  6
ByLayer
 62
    5
370
   -1
100
AcDbCircle
 10
330
 20
184.5
 40
1.75
  0
CIRCLE
  5
DF
100
AcDbEntity
  8
Line
  6
ByLayer
 62
    5
370
   -1
100
AcDbCircle
 10
290
 20
184.5
 40
1.75
  0
LINE
  5
E0
100
AcDbEntity
  8
Parts
  6
ByLayer
 62
  256
370
   -1
100
AcDbLine
 10
255
 20
195
 11
255
 21
192
  0
LINE
  5
E1
100
AcDbEntity
  8
Parts
  6
ByLayer
 62
  256
370
   -1
100
AcDbLine
 10
255
 20
192
 11
255
 21
195
  0
LINE
  5
E2
100
AcDbEntity
  8
Parts
  6
ByLayer
 62
  256
370
   -1
100
AcDbLine
 10
255
 20
195
 11
365
 21
195
  0
LINE
  5
E3
100
AcDbEntity
  8
Parts
  6
ByLayer
 62
  256
370
   -1
100
AcDbLine
 10
365
 20
195
 11
365
 21
192
  0
LINE
  5
E4
100
AcDbEntity
  8
Parts
  6
ByLayer
 62
  256
370
   -1
100
AcDbLine
 10
365
 20
192
 11
255
 21
192
  0
LINE
  5
E5
100
AcDbEntity
  8
Parts
  6
ByLayer
 62
  256
370
   -1
100
AcDbLine
 10
255
 20
145
 11
255
 21
148
  0
LINE
  5
E6
100
AcDbEntity
  8
Parts
  6
ByLayer
 62
  256
370
   -1
100
AcDbLine
 10
255
 20
148
 11
365
 21
148
  0
LINE
  5
E7
100
AcDbEntity
  8
Parts
  6
ByLayer
 62
  256
370
   -1
100
AcDbLine
 10
365
 20
148
 11
365
 21
145
  0
LINE
  5
E8
100
AcDbEntity
  8
Parts
  6
ByLayer
 62
  256
370
   -1
100
AcDbLine
 10
365
 20
145
 11
255
 21
145
  0
LINE
  5
E9
100
AcDbEntity
  8
Line
  6
DOTTINY
 62
    4
370
   -1
100
AcDbLine
 10
400
 20
100
 11
100
 21
100
  0
LINE
  5
EA
100
AcDbEntity
  8
Line
  6
DOTTINY
 62
    4
370
   -1
100
AcDbLine
 10
100
 20
280
 11
400
 21
280
  0
LINE
  5
EB
100
AcDbEntity
  8
Line
  6
DOTTINY
 62
    4
370
   -1
100
AcDbLine
 10
100
 20
280
 11
100
 21
100
  0
LINE
  5
EC
100
AcDbEntity
  8
Line
  6
DOTTINY
 62
    4
370
   -1
100
AcDbLine
 10
400
 20
280
 11
400
 21
100
  0
LINE
  5
ED
100
AcDbEntity
  8
Line
  6
ByLayer
 62
  256
370
   -1
100
AcDbLine
 10
550
 20
100
 11
850
 21
100
  0
LINE
  5
EE
100
AcDbEntity
  8
Line
  6
ByLayer
 62
  256
370
   -1
100
AcDbLine
 10
850
 20
100
 11
850
 21
280
  0
LINE
  5
EF
100
AcDbEntity
  8
Line
  6
ByLayer
 62
  256
370
   -1
100
AcDbLine
 10
850
 20
280
 11
550
 21
280
  0
LINE
  5
F0
100
AcDbEntity
  8
Line
  6
ByLayer
 62
  256
370
   -1
100
AcDbLine
 10
550
 20
280
 11
550
 21
100
  0
CIRCLE
  5
F1
100
AcDbEntity
  8
Line
  6
ByLayer
 62
    5
370
   -1
100
AcDbCircle
 10
590
 20
105
 40
1.75
  0
CIRCLE
  5
F2
100
AcDbEntity
  8
Line
  6
ByLayer
 62
    5
370
   -1
100
AcDbCircle
 10
700
 20
105
 40
1.75
  0
CIRCLE
  5
F3
100
AcDbEntity
  8
Line
  6
ByLayer
 62
    5
370
   -1
100
AcDbCircle
 10
810
 20
105
 40
1.75
  0
CIRCLE
  5
F4
100
AcDbEntity
  8
Line
  6
ByLayer
 62
    5
370
   -1
100
AcDbCircle
 10
810
 20
275
 40
1.75
  0
CIRCLE
  5
F5
100
AcDbEntity
  8
Line
  6
ByLayer
 62
    5
370
   -1
100
AcDbCircle
 10
700
 20
275
 40
1.75
  0
CIRCLE
  5
F6
100
AcDbEntity
  8
Line
  6
ByLayer
 62
    5
370
   -1
100
AcDbCircle
 10
590
 20
275
 40
1.75
  0
CIRCLE
  5
F7
100
AcDbEntity
  8
Line
  6
ByLayer
 62
    5
370
   -1
100
AcDbCircle
 10
844
 20
240
 40
1.75
  0
CIRCLE
  5
F8
100
AcDbEntity
  8
Line
  6
ByLayer
 62
    5
370
   -1
100
AcDbCircle
 10
844
 20
140
 40
1.75
  0
CIRCLE
  5
F9
100
AcDbEntity
  8
Line
  6
ByLayer
 62
    5
370
   -1
100
AcDbCircle
 10
556
 20
240
 40
1.75
  0
CIRCLE
  5
FA
100
AcDbEntity
  8
Line
  6
ByLayer
 62
    5
370
   -1
100
AcDbCircle
 10
556
 20
140
 40
1.75
  0
LINE
  5
FB
100
AcDbEntity
  8
Line
  6
ByLayer
 62
  256
370
   -1
100
AcDbLine
 10
640
 20
250
 11
643
 21
250
  0
LINE
  5
FC
100
AcDbEntity
  8
Line
  6
ByLayer
 62
  256
370
   -1
100
AcDbLine
 10
643
 20
250
 11
643
 21
210
  0
LINE
  5
FD
100
AcDbEntity
  8
Line
  6
ByLayer
 62
  256
370
   -1
100
AcDbLine
 10
643
 20
210
 11
640
 21
210
  0
LINE
  5
FE
100
AcDbEntity
  8
Line
  6
ByLayer
 62
  256
370
   -1
100
AcDbLine
 10
640
 20
210
 11
640
 21
250
  0
LINE
  5
FF
100
AcDbEntity
  8
Line
  6
ByLayer
 62
  256
370
   -1
100
AcDbLine
 10
630
 20
250
 11
633
 21
250
  0
LINE
  5
100
100
AcDbEntity
  8
Line
  6
ByLayer
 62
  256
370
   -1
100
AcDbLine
 10
633
 20
250
 11
633
 21
210
  0
LINE
  5
101
100
AcDbEntity
  8
Line
  6
ByLayer
 62
  256
370
   -1
100
AcDbLine
 10
633
 20
210
 11
630
 21
210
  0
LINE
  5
102
100
AcDbEntity
  8
Line
  6
ByLayer
 62
  256
370
   -1
100
AcDbLine
 10
630
 20
210
 11
630
 21
250
  0
LINE
  5
103
100
AcDbEntity
  8
Line
  6
ByLayer
 62
  256
370
   -1
100
AcDbLine
 10
620
 20
250
 11
623
 21
250
  0
LINE
  5
104
100
AcDbEntity
  8
Line
  6
ByLayer
 62
  256
370
   -1
100
AcDbLine
 10
623
 20
250
 11
623
 21
210
  0
LINE
  5
105
100
AcDbEntity
  8
Line
  6
ByLayer
 62
  256
370
   -1
100
AcDbLine
 10
623
 20
210
 11
620
 21
210
  0
LINE
  5
106
100
AcDbEntity
  8
Line
  6
ByLayer
 62
  256
370
   -1
100
AcDbLine
 10
620
 20
210
 11
620
 21
250
  0
LINE
  5
107
100
AcDbEntity
  8
Line
  6
ByLayer
 62
  256
370
   -1
100
AcDbLine
 10
610
 20
250
 11
613
 21
250
  0
LINE
  5
108
100
AcDbEntity
  8
Line
  6
ByLayer
 62
  256
370
   -1
100
AcDbLine
 10
613
 20
250
 11
613
 21
210
  0
LINE
  5
109
100
AcDbEntity
  8
Line
  6
ByLayer
 62
  256
370
   -1
100
AcDbLine
 10
613
 20
210
 11
610
 21
210
  0
LINE
  5
10A
100
AcDbEntity
  8
Line
  6
ByLayer
 62
  256
370
   -1
100
AcDbLine
 10
610
 20
210
 11
610
 21
250
  0
LINE
  5
10B
100
AcDbEntity
  8
Line
  6
ByLayer
 62
  256
370
   -1
100
AcDbLine
 10
650
 20
250
 11
653
 21
250
  0
LINE
  5
10C
100
AcDbEntity
  8
Line
  6
ByLayer
 62
  256
370
   -1
100
AcDbLine
 10
653
 20
250
 11
653
 21
210
  0
LINE
  5
10D
100
AcDbEntity
  8
Line
  6
ByLayer
 62
  256
370
   -1
100
AcDbLine
 10
653
 20
210
 11
650
 21
210
  0
LINE
  5
10E
100
AcDbEntity
  8
Line
  6
ByLayer
 62
  256
370
   -1
100
AcDbLine
 10
650
 20
210
 11
650
 21
250
  0
LINE
  5
10F
100
AcDbEntity
  8
Line
  6
ByLayer
 62
  256
370
   -1
100
AcDbLine
 10
660
 20
250
 11
663
 21
250
  0
LINE
  5
110
100
AcDbEntity
  8
Line
  6
ByLayer
 62
  256
370
   -1
100
AcDbLine
 10
663
 20
250
 11
663
 21
210
  0
LINE
  5
111
100
AcDbEntity
  8
Line
  6
ByLayer
 62
  256
370
   -1
100
AcDbLine
 10
663
 20
210
 11
660
 21
210
  0
LINE
  5
112
100
AcDbEntity
  8
Line
  6
ByLayer
 62
  256
370
   -1
100
AcDbLine
 10
660
 20
210
 11
660
 21
250
  0
LINE
  5
113
100
AcDbEntity
  8
Line
  6
ByLayer
 62
  256
370
   -1
100
AcDbLine
 10
670
 20
250
 11
673
 21
250
  0
LINE
  5
114
100
AcDbEntity
  8
Line
  6
ByLayer
 62
  256
370
   -1
100
AcDbLine
 10
673
 20
250
 11
673
 21
210
  0
LINE
  5
115
100
AcDbEntity
  8
Line
  6
ByLayer
 62
  256
370
   -1
100
AcDbLine
 10
673
 20
210
 11
670
 21
210
  0
LINE
  5
116
100
AcDbEntity
  8
Line
  6
ByLayer
 62
  256
370
   -1
100
AcDbLine
 10
670
 20
210
 11
670
 21
250
  0
LINE
  5
117
100
AcDbEntity
  8
Line
  6
ByLayer
 62
  256
370
   -1
100
AcDbLine
 10
680
 20
250
 11
683
 21
250
  0
LINE
  5
118
100
AcDbEntity
  8
Line
  6
ByLayer
 62
  256
370
   -1
100
AcDbLine
 10
683
 20
250
 11
683
 21
210
  0
LINE
  5
119
100
AcDbEntity
  8
Line
  6
ByLayer
 62
  256
370
   -1
100
AcDbLine
 10
683
 20
210
 11
680
 21
210
  0
LINE
  5
11A
100
AcDbEntity
  8
Line
  6
ByLayer
 62
  256
370
   -1
100
AcDbLine
 10
680
 20
210
 11
680
 21
250
  0
LINE
  5
11B
100
AcDbEntity
  8
Line
  6
ByLayer
 62
  256
370
   -1
100
AcDbLine
 10
750
 20
250
 11
753
 21
250
  0
LINE
  5
11C
100
AcDbEntity
  8
Line
  6
ByLayer
 62
  256
370
   -1
100
AcDbLine
 10
753
 20
250
 11
753
 21
210
  0
LINE
  5
11D
100
AcDbEntity
  8
Line
  6
ByLayer
 62
  256
370
   -1
100
AcDbLine
 10
753
 20
210
 11
750
 21
210
  0
LINE
  5
11E
100
AcDbEntity
  8
Line
  6
ByLayer
 62
  256
370
   -1
100
AcDbLine
 10
750
 20
210
 11
750
 21
250
  0
LINE
  5
11F
100
AcDbEntity
  8
Line
  6
ByLayer
 62
  256
370
   -1
100
AcDbLine
 10
740
 20
250
 11
743
 21
250
  0
LINE
  5
120
100
AcDbEntity
  8
Line
  6
ByLayer
 62
  256
370
   -1
100
AcDbLine
 10
743
 20
250
 11
743
 21
210
  0
LINE
  5
121
100
AcDbEntity
  8
Line
  6
ByLayer
 62
  256
370
   -1
100
AcDbLine
 10
743
 20
210
 11
740
 21
210
  0
LINE
  5
122
100
AcDbEntity
  8
Line
  6
ByLayer
 62
  256
370
   -1
100
AcDbLine
 10
740
 20
210
 11
740
 21
250
  0
LINE
  5
123
100
AcDbEntity
  8
Line
  6
ByLayer
 62
  256
370
   -1
100
AcDbLine
 10
730
 20
250
 11
733
 21
250
  0
LINE
  5
124
100
AcDbEntity
  8
Line
  6
ByLayer
 62
  256
370
   -1
100
AcDbLine
 10
733
 20
250
 11
733
 21
210
  0
LINE
  5
125
100
AcDbEntity
  8
Line
  6
ByLayer
 62
  256
370
   -1
100
AcDbLine
 10
733
 20
210
 11
730
 21
210
  0
LINE
  5
126
100
AcDbEntity
  8
Line
  6
ByLayer
 62
  256
370
   -1
100
AcDbLine
 10
730
 20
210
 11
730
 21
250
  0
LINE
  5
127
100
AcDbEntity
  8
Line
  6
ByLayer
 62
  256
370
   -1
100
AcDbLine
 10
720
 20
250
 11
723
 21
250
  0
LINE
  5
128
100
AcDbEntity
  8
Line
  6
ByLayer
 62
  256
370
   -1
100
AcDbLine
 10
723
 20
250
 11
723
 21
210
  0
LINE
  5
129
100
AcDbEntity
  8
Line
  6
ByLayer
 62
  256
370
   -1
100
AcDbLine
 10
723
 20
210
 11
720
 21
210
  0
LINE
  5
12A
100
AcDbEntity
  8
Line
  6
ByLayer
 62
  256
370
   -1
100
AcDbLine
 10
720
 20
210
 11
720
 21
250
  0
LINE
  5
12B
100
AcDbEntity
  8
Line
  6
ByLayer
 62
  256
370
   -1
100
AcDbLine
 10
760
 20
250
 11
763
 21
250
  0
LINE
  5
12C
100
AcDbEntity
  8
Line
  6
ByLayer
 62
  256
370
   -1
100
AcDbLine
 10
763
 20
250
 11
763
 21
210
  0
LINE
  5
12D
100
AcDbEntity
  8
Line
  6
ByLayer
 62
  256
370
   -1
100
AcDbLine
 10
763
 20
210
 11
760
 21
210
  0
LINE
  5
12E
100
AcDbEntity
  8
Line
  6
ByLayer
 62
  256
370
   -1
100
AcDbLine
 10
760
 20
210
 11
760
 21
250
  0
LINE
  5
12F
100
AcDbEntity
  8
Line
  6
ByLayer
 62
  256
370
   -1
100
AcDbLine
 10
770
 20
250
 11
773
 21
250
  0
LINE
  5
130
100
AcDbEntity
  8
Line
  6
ByLayer
 62
  256
370
   -1
100
AcDbLine
 10
773
 20
250
 11
773
 21
210
  0
LINE
  5
131
100
AcDbEntity
  8
Line
  6
ByLayer
 62
  256
370
   -1
100
AcDbLine
 10
773
 20
210
 11
770
 21
210
  0
LINE
  5
132
100
AcDbEntity
  8
Line
  6
ByLayer
 62
  256
370
   -1
100
AcDbLine
 10
770
 20
210
 11
770
 21
250
  0
LINE
  5
133
100
AcDbEntity
  8
Line
  6
ByLayer
 62
  256
370
   -1
100
AcDbLine
 10
780
 20
250
 11
783
 21
250
  0
LINE
  5
134
100
AcDbEntity
  8
Line
  6
ByLayer
 62
  256
370
   -1
100
AcDbLine
 10
783
 20
250
 11
783
 21
210
  0
LINE
  5
135
100
AcDbEntity
  8
Line
  6
ByLayer
 62
  256
370
   -1
100
AcDbLine
 10
783
 20
210
 11
780
 21
210
  0
LINE
  5
136
100
AcDbEntity
  8
Line
  6
ByLayer
 62
  256
370
   -1
100
AcDbLine
 10
780
 20
210
 11
780
 21
250
  0
LINE
  5
137
100
AcDbEntity
  8
Line
  6
ByLayer
 62
  256
370
   -1
100
AcDbLine
 10
790
 20
250
 11
793
 21
250
  0
LINE
  5
138
100
AcDbEntity
  8
Line
  6
ByLayer
 62
  256
370
   -1
100
AcDbLine
 10
793
 20
250
 11
793
 21
210
  0
LINE
  5
139
100
AcDbEntity
  8
Line
  6
ByLayer
 62
  256
370
   -1
100
AcDbLine
 10
793
 20
210
 11
790
 21
210
  0
LINE
  5
13A
100
AcDbEntity
  8
Line
  6
ByLayer
 62
  256
370
   -1
100
AcDbLine
 10
790
 20
210
 11
790
 21
250
  0
LINE
  5
13B
100
AcDbEntity
  8
Line
  6
ByLayer
 62
  256
370
   -1
100
AcDbLine
 10
640
 20
170
 11
643
 21
170
  0
LINE
  5
13C
100
AcDbEntity
  8
Line
  6
ByLayer
 62
  256
370
   -1
100
AcDbLine
 10
643
 20
170
 11
643
 21
130
  0
LINE
  5
13D
100
AcDbEntity
  8
Line
  6
ByLayer
 62
  256
370
   -1
100
AcDbLine
 10
643
 20
130
 11
640
 21
130
  0
LINE
  5
13E
100
AcDbEntity
  8
Line
  6
ByLayer
 62
  256
370
   -1
100
AcDbLine
 10
640
 20
130
 11
640
 21
170
  0
LINE
  5
13F
100
AcDbEntity
  8
Line
  6
ByLayer
 62
  256
370
   -1
100
AcDbLine
 10
630
 20
170
 11
633
 21
170
  0
LINE
  5
140
100
AcDbEntity
  8
Line
  6
ByLayer
 62
  256
370
   -1
100
AcDbLine
 10
633
 20
170
 11
633
 21
130
  0
LINE
  5
141
100
AcDbEntity
  8
Line
  6
ByLayer
 62
  256
370
   -1
100
AcDbLine
 10
633
 20
130
 11
630
 21
130
  0
LINE
  5
142
100
AcDbEntity
  8
Line
  6
ByLayer
 62
  256
370
   -1
100
AcDbLine
 10
630
 20
130
 11
630
 21
170
  0
LINE
  5
143
100
AcDbEntity
  8
Line
  6
ByLayer
 62
  256
370
   -1
100
AcDbLine
 10
620
 20
170
 11
623
 21
170
  0
LINE
  5
144
100
AcDbEntity
  8
Line
  6
ByLayer
 62
  256
370
   -1
100
AcDbLine
 10
623
 20
170
 11
623
 21
130
  0
LINE
  5
145
100
AcDbEntity
  8
Line
  6
ByLayer
 62
  256
370
   -1
100
AcDbLine
 10
623
 20
130
 11
620
 21
130
  0
LINE
  5
146
100
AcDbEntity
  8
Line
  6
ByLayer
 62
  256
370
   -1
100
AcDbLine
 10
620
 20
130
 11
620
 21
170
  0
LINE
  5
147
100
AcDbEntity
  8
Line
  6
ByLayer
 62
  256
370
   -1
100
AcDbLine
 10
610
 20
170
 11
613
 21
170
  0
LINE
  5
148
100
AcDbEntity
  8
Line
  6
ByLayer
 62
  256
370
   -1
100
AcDbLine
 10
613
 20
170
 11
613
 21
130
  0
LINE
  5
149
100
AcDbEntity
  8
Line
  6
ByLayer
 62
  256
370
   -1
100
AcDbLine
 10
613
 20
130
 11
610
 21
130
  0
LINE
  5
14A
100
AcDbEntity
  8
Line
  6
ByLayer
 62
  256
370
   -1
100
AcDbLine
 10
610
 20
130
 11
610
 21
170
  0
LINE
  5
14B
100
AcDbEntity
  8
Line
  6
ByLayer
 62
  256
370
   -1
100
AcDbLine
 10
650
 20
170
 11
653
 21
170
  0
LINE
  5
14C
100
AcDbEntity
  8
Line
  6
ByLayer
 62
  256
370
   -1
100
AcDbLine
 10
653
 20
170
 11
653
 21
130
  0
LINE
  5
14D
100
AcDbEntity
  8
Line
  6
ByLayer
 62
  256
370
   -1
100
AcDbLine
 10
653
 20
130
 11
650
 21
130
  0
LINE
  5
14E
100
AcDbEntity
  8
Line
  6
ByLayer
 62
  256
370
   -1
100
AcDbLine
 10
650
 20
130
 11
650
 21
170
  0
LINE
  5
14F
100
AcDbEntity
  8
Line
  6
ByLayer
 62
  256
370
   -1
100
AcDbLine
 10
660
 20
170
 11
663
 21
170
  0
LINE
  5
150
100
AcDbEntity
  8
Line
  6
ByLayer
 62
  256
370
   -1
100
AcDbLine
 10
663
 20
170
 11
663
 21
130
  0
LINE
  5
151
100
AcDbEntity
  8
Line
  6
ByLayer
 62
  256
370
   -1
100
AcDbLine
 10
663
 20
130
 11
660
 21
130
  0
LINE
  5
152
100
AcDbEntity
  8
Line
  6
ByLayer
 62
  256
370
   -1
100
AcDbLine
 10
660
 20
130
 11
660
 21
170
  0
LINE
  5
153
100
AcDbEntity
  8
Line
  6
ByLayer
 62
  256
370
   -1
100
AcDbLine
 10
670
 20
170
 11
673
 21
170
  0
LINE
  5
154
100
AcDbEntity
  8
Line
  6
ByLayer
 62
  256
370
   -1
100
AcDbLine
 10
673
 20
170
 11
673
 21
130
  0
LINE
  5
155
100
AcDbEntity
  8
Line
  6
ByLayer
 62
  256
370
   -1
100
AcDbLine
 10
673
 20
130
 11
670
 21
130
  0
LINE
  5
156
100
AcDbEntity
  8
Line
  6
ByLayer
 62
  256
370
   -1
100
AcDbLine
 10
670
 20
130
 11
670
 21
170
  0
LINE
  5
157
100
AcDbEntity
  8
Line
  6
ByLayer
 62
  256
370
   -1
100
AcDbLine
 10
680
 20
170
 11
683
 21
170
  0
LINE
  5
158
100
AcDbEntity
  8
Line
  6
ByLayer
 62
  256
370
   -1
100
AcDbLine
 10
683
 20
170
 11
683
 21
130
  0
LINE
  5
159
100
AcDbEntity
  8
Line
  6
ByLayer
 62
  256
370
   -1
100
AcDbLine
 10
683
 20
130
 11
680
 21
130
  0
LINE
  5
15A
100
AcDbEntity
  8
Line
  6
ByLayer
 62
  256
370
   -1
100
AcDbLine
 10
680
 20
130
 11
680
 21
170
  0
LINE
  5
15B
100
AcDbEntity
  8
Line
  6
ByLayer
 62
  256
370
   -1
100
AcDbLine
 10
750
 20
170
 11
753
 21
170
  0
LINE
  5
15C
100
AcDbEntity
  8
Line
  6
ByLayer
 62
  256
370
   -1
100
AcDbLine
 10
753
 20
170
 11
753
 21
130
  0
LINE
  5
15D
100
AcDbEntity
  8
Line
  6
ByLayer
 62
  256
370
   -1
100
AcDbLine
 10
753
 20
130
 11
750
 21
130
  0
LINE
  5
15E
100
AcDbEntity
  8
Line
  6
ByLayer
 62
  256
370
   -1
100
AcDbLine
 10
750
 20
130
 11
750
 21
170
  0
LINE
  5
15F
100
AcDbEntity
  8
Line
  6
ByLayer
 62
  256
370
   -1
100
AcDbLine
 10
740
 20
170
 11
743
 21
170
  0
LINE
  5
160
100
AcDbEntity
  8
Line
  6
ByLayer
 62
  256
370
   -1
100
AcDbLine
 10
743
 20
170
 11
743
 21
130
  0
LINE
  5
161
100
AcDbEntity
  8
Line
  6
ByLayer
 62
  256
370
   -1
100
AcDbLine
 10
743
 20
130
 11
740
 21
130
  0
LINE
  5
162
100
AcDbEntity
  8
Line
  6
ByLayer
 62
  256
370
   -1
100
AcDbLine
 10
740
 20
130
 11
740
 21
170
  0
LINE
  5
163
100
AcDbEntity
  8
Line
  6
ByLayer
 62
  256
370
   -1
100
AcDbLine
 10
730
 20
170
 11
733
 21
170
  0
LINE
  5
164
100
AcDbEntity
  8
Line
  6
ByLayer
 62
  256
370
   -1
100
AcDbLine
 10
733
 20
170
 11
733
 21
130
  0
LINE
  5
165
100
AcDbEntity
  8
Line
  6
ByLayer
 62
  256
370
   -1
100
AcDbLine
 10
733
 20
130
 11
730
 21
130
  0
LINE
  5
166
100
AcDbEntity
  8
Line
  6
ByLayer
 62
  256
370
   -1
100
AcDbLine
 10
730
 20
130
 11
730
 21
170
  0
LINE
  5
167
100
AcDbEntity
  8
Line
  6
ByLayer
 62
  256
370
   -1
100
AcDbLine
 10
720
 20
170
 11
723
 21
170
  0
LINE
  5
168
100
AcDbEntity
  8
Line
  6
ByLayer
 62
  256
370
   -1
100
AcDbLine
 10
723
 20
170
 11
723
 21
130
  0
LINE
  5
169
100
AcDbEntity
  8
Line
  6
ByLayer
 62
  256
370
   -1
100
AcDbLine
 10
723
 20
130
 11
720
 21
130
  0
LINE
  5
16A
100
AcDbEntity
  8
Line
  6
ByLayer
 62
  256
370
   -1
100
AcDbLine
 10
720
 20
130
 11
720
 21
170
  0
LINE
  5
16B
100
AcDbEntity
  8
Line
  6
ByLayer
 62
  256
370
   -1
100
AcDbLine
 10
760
 20
170
 11
763
 21
170
  0
LINE
  5
16C
100
AcDbEntity
  8
Line
  6
ByLayer
 62
  256
370
   -1
100
AcDbLine
 10
763
 20
170
 11
763
 21
130
  0
LINE
  5
16D
100
AcDbEntity
  8
Line
  6
ByLayer
 62
  256
370
   -1
100
AcDbLine
 10
763
 20
130
 11
760
 21
130
  0
LINE
  5
16E
100
AcDbEntity
  8
Line
  6
ByLayer
 62
  256
370
   -1
100
AcDbLine
 10
760
 20
130
 11
760
 21
170
  0
LINE
  5
16F
100
AcDbEntity
  8
Line
  6
ByLayer
 62
  256
370
   -1
100
AcDbLine
 10
770
 20
170
 11
773
 21
170
  0
LINE
  5
170
100
AcDbEntity
  8
Line
  6
ByLayer
 62
  256
370
   -1
100
AcDbLine
 10
773
 20
170
 11
773
 21
130
  0
LINE
  5
171
100
AcDbEntity
  8
Line
  6
ByLayer
 62
  256
370
   -1
100
AcDbLine
 10
773
 20
130
 11
770
 21
130
  0
LINE
  5
172
100
AcDbEntity
  8
Line
  6
ByLayer
 62
  256
370
   -1
100
AcDbLine
 10
770
 20
130
 11
770
 21
170
  0
LINE
  5
173
100
AcDbEntity
  8
Line
  6
ByLayer
 62
  256
370
   -1
100
AcDbLine
 10
780
 20
170
 11
783
 21
170
  0
LINE
  5
174
100
AcDbEntity
  8
Line
  6
ByLayer
 62
  256
370
   -1
100
AcDbLine
 10
783
 20
170
 11
783
 21
130
  0
LINE
  5
175
100
AcDbEntity
  8
Line
  6
ByLayer
 62
  256
370
   -1
100
AcDbLine
 10
783
 20
130
 11
780
 21
130
  0
LINE
  5
176
100
AcDbEntity
  8
Line
  6
ByLayer
 62
  256
370
   -1
100
AcDbLine
 10
780
 20
130
 11
780
 21
170
  0
LINE
  5
177
100
AcDbEntity
  8
Line
  6
ByLayer
 62
  256
370
   -1
100
AcDbLine
 10
790
 20
170
 11
793
 21
170
  0
LINE
  5
178
100
AcDbEntity
  8
Line
  6
ByLayer
 62
  256
370
   -1
100
AcDbLine
 10
793
 20
170
 11
793
 21
130
  0
LINE
  5
179
100
AcDbEntity
  8
Line
  6
ByLayer
 62
  256
370
   -1
100
AcDbLine
 10
793
 20
130
 11
790
 21
130
  0
LINE
  5
17A
100
AcDbEntity
  8
Line
  6
ByLayer
 62
  256
370
   -1
100
AcDbLine
 10
790
 20
130
 11
790
 21
170
  0
CIRCLE
  5
17B
100
AcDbEntity
  8
Line
  6
ByLayer
 62
  256
370
   -1
100
AcDbCircle
 10
297
 20
245
 40
2.4
  0
CIRCLE
  5
17C
100
AcDbEntity
  8
Line
  6
ByLayer
 62
  256
370
   -1
100
AcDbCircle
 10
380
 20
245
 40
2.4
  0
CIRCLE
  5
17D
100
AcDbEntity
  8
Line
  6
ByLayer
 62
  256
370
   -1
100
AcDbCircle
 10
322.5
 20
245
 40
2.4
  0
CIRCLE
  5
17E
100
AcDbEntity
  8
Line
  6
ByLayer
 62
  256
370
   -1
100
AcDbCircle
 10
239.5
 20
245
 40
2.4
  0
CIRCLE
  5
17F
100
AcDbEntity
  8
Line
  6
ByLayer
 62
    1
370
   -1
100
AcDbCircle
 10
469.9999999999999
 20
140.0000000000001
 40
1.5
  0
CIRCLE
  5
180
100
AcDbEntity
  8
Line
  6
ByLayer
 62
    1
370
   -1
100
AcDbCircle
 10
469.9999999999999
 20
240.0000000000001
 40
1.5
  0
LINE
  5
181
100
AcDbEntity
  8
Line
  6
ByLayer
 62
  256
370
   -1
100
AcDbLine
 10
464.9999999999999
 20
280.0000000000001
 11
464.9999999999999
 21
278.0000000000001
  0
LINE
  5
182
100
AcDbEntity
  8
Line
  6
ByLayer
 62
  256
370
   -1
100
AcDbLine
 10
464.9999999999999
 20
278.0000000000001
 11
474.9999999999999
 21
278.0000000000001
  0
LINE
  5
183
100
AcDbEntity
  8
Line
  6
ByLayer
 62
  256
370
   -1
100
AcDbLine
 10
464.9999999999999
 20
100.0000000000001
 11
464.9999999999999
 21
102.0000000000001
  0
LINE
  5
184
100
AcDbEntity
  8
Line
  6
ByLayer
 62
  256
370
   -1
100
AcDbLine
 10
464.9999999999999
 20
102.0000000000001
 11
474.9999999999999
 21
102.0000000000001
  0
LINE
  5
185
100
AcDbEntity
  8
Line
  6
ByLayer
 62
  256
370
   -1
100
AcDbLine
 10
474.9999999999999
 20
110.0000000000001
 11
475
 21
102.0000000000001
  0
LINE
  5
186
100
AcDbEntity
  8
Line
  6
ByLayer
 62
  256
370
   -1
100
AcDbLine
 10
474.9999999999999
 20
110.0000000000001
 11
474.9999999999999
 21
278.0000000000001
  0
LINE
  5
187
100
AcDbEntity
  8
Line
  6
DOTTINY
 62
    4
370
   -1
100
AcDbLine
 10
464.9999999999999
 20
278.0000000000001
 11
464.9999999999999
 21
102.0000000000001
  0
LINE
  5
188
100
AcDbEntity
  8
Line
  6
ByLayer
 62
  256
370
   -1
100
AcDbLine
 10
112
 20
24.99999999999994
 11
388.0000000000001
 21
24.99999999999994
  0
LINE
  5
189
100
AcDbEntity
  8
Line
  6
ByLayer
 62
  256
370
   -1
100
AcDbLine
 10
388.0000000000001
 20
24.99999999999994
 11
388.0000000000001
 21
34.99999999999994
  0
LINE
  5
18A
100
AcDbEntity
  8
Line
  6
ByLayer
 62
  256
370
   -1
100
AcDbLine
 10
112
 20
34.99999999999994
 11
112
 21
24.99999999999994
  0
CIRCLE
  5
18B
100
AcDbEntity
  8
Line
  6
ByLayer
 62
    1
370
   -1
100
AcDbCircle
 10
140
 20
30
 40
1.5
  0
CIRCLE
  5
18C
100
AcDbEntity
  8
Line
  6
ByLayer
 62
    1
370
   -1
100
AcDbCircle
 10
250
 20
30
 40
1.5
  0
CIRCLE
  5
18D
100
AcDbEntity
  8
Line
  6
ByLayer
 62
    1
370
   -1
100
AcDbCircle
 10
360
 20
30
 40
1.5
  0
LINE
  5
18E
100
AcDbEntity
  8
Line
  6
ByLayer
 62
  256
370
   -1
100
AcDbLine
 10
99.99999999999999
 20
35
 11
112
 21
34.99999999999994
  0
LINE
  5
18F
100
AcDbEntity
  8
Line
  6
ByLayer
 62
  256
370
   -1
100
AcDbLine
 10
388.0000000000001
 20
34.99999999999994
 11
400
 21
35
  0
LINE
  5
190
100
AcDbEntity
  8
Line
  6
DOTTINY
 62
    4
370
   -1
100
AcDbLine
 10
388
 20
35
 11
112
 21
35
  0
CIRCLE
  5
191
100
AcDbEntity
  8
Line
  6
ByLayer
 62
    1
370
   -1
100
AcDbCircle
 10
29.99999999999999
 20
240
 40
1.5
  0
CIRCLE
  5
192
100
AcDbEntity
  8
Line
  6
ByLayer
 62
    1
370
   -1
100
AcDbCircle
 10
29.99999999999999
 20
140
 40
1.5
  0
LINE
  5
193
100
AcDbEntity
  8
Line
  6
ByLayer
 62
  256
370
   -1
100
AcDbLine
 10
34.99999999999999
 20
280.0000000000001
 11
34.99999999999999
 21
278
  0
LINE
  5
194
100
AcDbEntity
  8
Line
  6
ByLayer
 62
  256
370
   -1
100
AcDbLine
 10
34.99999999999999
 20
278
 11
24.99999999999999
 21
278
  0
LINE
  5
195
100
AcDbEntity
  8
Line
  6
ByLayer
 62
  256
370
   -1
100
AcDbLine
 10
24.99999999999999
 20
278
 11
24.99999999999996
 21
110
  0
LINE
  5
196
100
AcDbEntity
  8
Line
  6
ByLayer
 62
  256
370
   -1
100
AcDbLine
 10
34.99999999999999
 20
100
 11
34.99999999999999
 21
102
  0
LINE
  5
197
100
AcDbEntity
  8
Line
  6
ByLayer
 62
  256
370
   -1
100
AcDbLine
 10
34.99999999999999
 20
102
 11
24.99999999999999
 21
102
  0
LINE
  5
198
100
AcDbEntity
  8
Line
  6
ByLayer
 62
  256
370
   -1
100
AcDbLine
 10
24.99999999999999
 20
110
 11
25
 21
102
  0
LINE
  5
199
100
AcDbEntity
  8
Line
  6
DOTTINY
 62
    4
370
   -1
100
AcDbLine
 10
34.99999999999999
 20
278
 11
34.99999999999999
 21
102
  0
LINE
  5
19A
100
AcDbEntity
  8
Line
  6
ByLayer
 62
  256
370
   -1
100
AcDbLine
 10
112
 20
355
 11
388
 21
355
  0
LINE
  5
19B
100
AcDbEntity
  8
Line
  6
ByLayer
 62
  256
370
   -1
100
AcDbLine
 10
388
 20
355
 11
388
 21
345
  0
LINE
  5
19C
100
AcDbEntity
  8
Line
  6
ByLayer
 62
  256
370
   -1
100
AcDbLine
 10
112
 20
345
 11
112
 21
355
  0
CIRCLE
  5
19D
100
AcDbEntity
  8
Line
  6
ByLayer
 62
    1
370
   -1
100
AcDbCircle
 10
140
 20
350
 40
1.5
  0
CIRCLE
  5
19E
100
AcDbEntity
  8
Line
  6
ByLayer
 62
    1
370
   -1
100
AcDbCircle
 10
250
 20
350
 40
1.5
  0
CIRCLE
  5
19F
100
AcDbEntity
  8
Line
  6
ByLayer
 62
    1
370
   -1
100
AcDbCircle
 10
360
 20
350
 40
1.5
  0
LINE
  5
1A0
100
AcDbEntity
  8
Line
  6
ByLayer
 62
  256
370
   -1
100
AcDbLine
 10
100
 20
345
 11
112
 21
345
  0
LINE
  5
1A1
100
AcDbEntity
  8
Line
  6
ByLayer
 62
  256
370
   -1
100
AcDbLine
 10
388
 20
345
 11
400
 21
345
  0
LINE
  5
1A2
100
AcDbEntity
  8
Line
  6
DOTTINY
 62
    4
370
   -1
100
AcDbLine
 10
112
 20
345
 11
388
 21
345
  0
LINE
  5
1A3
100
AcDbEntity
  8
Line
  6
ByLayer
 62
  256
370
   -1
100
AcDbLine
 10
120
 20
327.5
 11
147
 21
327.5
  0
LINE
  5
1A4
100
AcDbEntity
  8
Line
  6
ByLayer
 62
  256
370
   -1
100
AcDbLine
 10
147
 20
327.5
 11
147
 21
299.5
  0
LINE
  5
1A5
100
AcDbEntity
  8
Line
  6
ByLayer
 62
  256
370
   -1
100
AcDbLine
 10
147
 20
299.5
 11
144.000028770138
 21
296.5000287701379
  0
LINE
  5
1A6
100
AcDbEntity
  8
Line
  6
ByLayer
 62
  256
370
   -1
100
AcDbLine
 10
144.000028770138
 20
296.5000287701379
 11
123.000028770138
 21
296.5000287701379
  0
LINE
  5
1A7
100
AcDbEntity
  8
Line
  6
ByLayer
 62
  256
370
   -1
100
AcDbLine
 10
123.000028770138
 20
296.5000287701379
 11
120.0000575402759
 21
299.5
  0
LINE
  5
1A8
100
AcDbEntity
  8
Line
  6
ByLayer
 62
  256
370
   -1
100
AcDbLine
 10
120.0000575402759
 20
299.5
 11
120
 21
327.5
  0
CIRCLE
  5
1A9
100
AcDbEntity
  8
Line
  6
ByLayer
 62
    1
370
   -1
100
AcDbCircle
 10
115.5
 20
312
 40
1.5
  0
CIRCLE
  5
1AA
100
AcDbEntity
  8
Line
  6
ByLayer
 62
    1
370
   -1
100
AcDbCircle
 10
151.5
 20
312
 40
1.5
  0
CIRCLE
  5
1AB
100
AcDbEntity
  8
Line
  6
ByLayer
 62
  256
370
   -1
100
AcDbCircle
 10
180
 20
312.5
 40
3.3
  0
CIRCLE
  5
1AC
100
AcDbEntity
  8
Line
  6
ByLayer
 62
  256
370
   -1
100
AcDbCircle
 10
300.0000000000001
 20
67.49999999999994
 40
14.5
  0
CIRCLE
  5
1AD
100
AcDbEntity
  8
Line
  6
ByLayer
 62
  256
370
   -1
100
AcDbCircle
 10
360.0000000000001
 20
67.49999999999994
 40
14.5
  0
LINE
  5
1AE
100
AcDbEntity
  8
Parts
  6
ByLayer
 62
  256
370
   -1
100
AcDbLine
 10
339
 20
88.5
 11
381
 21
88.5
  0
LINE
  5
1AF
100
AcDbEntity
  8
Parts
  6
ByLayer
 62
  256
370
   -1
100
AcDbLine
 10
381
 20
88.5
 11
381
 21
46.5
  0
LINE
  5
1B0
100
AcDbEntity
  8
Parts
  6
ByLayer
 62
  256
370
   -1
100
AcDbLine
 10
381
 20
46.5
 11
339
 21
46.5
  0
LINE
  5
1B1
100
AcDbEntity
  8
Parts
  6
ByLayer
 62
  256
370
   -1
100
AcDbLine
 10
339
 20
46.5
 11
339
 21
88.5
  0
LINE
  5
1B2
100
AcDbEntity
  8
Parts
  6
ByLayer
 62
  256
370
   -1
100
AcDbLine
 10
279
 20
88.5
 11
321
 21
88.5
  0
LINE
  5
1B3
100
AcDbEntity
  8
Parts
  6
ByLayer
 62
  256
370
   -1
100
AcDbLine
 10
321
 20
88.5
 11
321
 21
46.5
  0
LINE
  5
1B4
100
AcDbEntity
  8
Parts
  6
ByLayer
 62
  256
370
   -1
100
AcDbLine
 10
321
 20
46.5
 11
279
 21
46.5
  0
LINE
  5
1B5
100
AcDbEntity
  8
Parts
  6
ByLayer
 62
  256
370
   -1
100
AcDbLine
 10
279
 20
46.5
 11
279
 21
88.5
  0
LINE
  5
1B6
100
AcDbEntity
  8
Parts
  6
ByLayer
 62
  256
370
   -1
100
AcDbLine
 10
177
 20
85.5
 11
248
 21
85.5
  0
LINE
  5
1B7
100
AcDbEntity
  8
Parts
  6
ByLayer
 62
  256
370
   -1
100
AcDbLine
 10
248
 20
85.5
 11
248
 21
49.5
  0
LINE
  5
1B8
100
AcDbEntity
  8
Parts
  6
ByLayer
 62
  256
370
   -1
100
AcDbLine
 10
248
 20
49.5
 11
177
 21
49.5
  0
LINE
  5
1B9
100
AcDbEntity
  8
Parts
  6
ByLayer
 62
  256
370
   -1
100
AcDbLine
 10
177
 20
49.5
 11
177
 21
85.5
  0
CIRCLE
  5
1BA
100
AcDbEntity
  8
Line
  6
ByLayer
 62
    5
370
   -1
100
AcDbCircle
 10
180
 20
82.5
 40
1.75
  0
CIRCLE
  5
1BB
100
AcDbEntity
  8
Line
  6
ByLayer
 62
    5
370
   -1
100
AcDbCircle
 10
245
 20
82.5
 40
1.75
  0
CIRCLE
  5
1BC
100
AcDbEntity
  8
Line
  6
ByLayer
 62
    5
370
   -1
100
AcDbCircle
 10
180
 20
52.5
 40
1.75
  0
CIRCLE
  5
1BD
100
AcDbEntity
  8
Line
  6
ByLayer
 62
    5
370
   -1
100
AcDbCircle
 10
245
 20
52.5
 40
1.75
  0
CIRCLE
  5
1BE
100
AcDbEntity
  8
Line
  6
ByLayer
 62
    5
370
   -1
100
AcDbCircle
 10
282
 20
85.5005
 40
1.6
  0
CIRCLE
  5
1BF
100
AcDbEntity
  8
Line
  6
ByLayer
 62
    5
370
   -1
100
AcDbCircle
 10
318
 20
85.5005
 40
1.6
  0
CIRCLE
  5
1C0
100
AcDbEntity
  8
Line
  6
ByLayer
 62
    5
370
   -1
100
AcDbCircle
 10
342
 20
85.5005
 40
1.6
  0
CIRCLE
  5
1C1
100
AcDbEntity
  8
Line
  6
ByLayer
 62
    5
370
   -1
100
AcDbCircle
 10
378
 20
85.5005
 40
1.6
  0
CIRCLE
  5
1C2
100
AcDbEntity
  8
Line
  6
ByLayer
 62
    5
370
   -1
100
AcDbCircle
 10
282
 20
49.5005
 40
1.6
  0
CIRCLE
  5
1C3
100
AcDbEntity
  8
Line
  6
ByLayer
 62
    5
370
   -1
100
AcDbCircle
 10
318
 20
49.5005
 40
1.6
  0
CIRCLE
  5
1C4
100
AcDbEntity
  8
Line
  6
ByLayer
 62
    5
370
   -1
100
AcDbCircle
 10
342
 20
49.5005
 40
1.6
  0
CIRCLE
  5
1C5
100
AcDbEntity
  8
Line
  6
ByLayer
 62
    5
370
   -1
100
AcDbCircle
 10
378
 20
49.5005
 40
1.6
  0
MTEXT
  5
1C6
100
AcDbEntity
  8
Line
  6
ByLayer
 62
  256
370
   -1
100
AcDbMText
 10
184
 20
69.5
 30
0
 40
6
 41
54.93333333333333
 71
    1
 72
    1
  1
Claro EL95SE
  7
iso3098
210
0
220
0
230
1
 50
0
 73
    2
 44
1
  0
LINE
  5
1C7
100
AcDbEntity
  8
Line
  6
ByLayer
 62
  256
370
   -1
100
AcDbLine
 10
99.99999999999999
 20
35
 11
100
 21
100
  0
LINE
  5
1C8
100
AcDbEntity
  8
Line
  6
ByLayer
 62
  256
370
   -1
100
AcDbLine
 10
100
 20
100
 11
34.99999999999999
 21
100
  0
LINE
  5
1C9
100
AcDbEntity
  8
Line
  6
ByLayer
 62
  256
370
   -1
100
AcDbLine
 10
400
 20
35
 11
400
 21
100
  0
LINE
  5
1CA
100
AcDbEntity
  8
Line
  6
ByLayer
 62
  256
370
   -1
100
AcDbLine
 10
400
 20
100
 11
464.9999999999999
 21
100.0000000000001
  0
LINE
  5
1CB
100
AcDbEntity
  8
Line
  6
ByLayer
 62
  256
370
   -1
100
AcDbLine
 10
400
 20
345
 11
400
 21
280
  0
LINE
  5
1CC
100
AcDbEntity
  8
Line
  6
ByLayer
 62
  256
370
   -1
100
AcDbLine
 10
400
 20
280
 11
464.9999999999999
 21
280.0000000000001
  0
LINE
  5
1CD
100
AcDbEntity
  8
Line
  6
ByLayer
 62
  256
370
   -1
100
AcDbLine
 10
100
 20
345
 11
100
 21
280
  0
LINE
  5
1CE
100
AcDbEntity
  8
Line
  6
ByLayer
 62
  256
370
   -1
100
AcDbLine
 10
100
 20
280
 11
34.99999999999999
 21
280.0000000000001
  0
DIMENSION
  5
1CF
100
AcDbEntity
  8
Dimention
  6
ByLayer
 62
  256
370
   -1
100
AcDbDimension
  2
*D1
 10
400
 20
10
 30
0
 11
250
 21
14.6875
 31
0
 70
   33
 71
    5
  3
Standard
 53
0
210
0
220
0
230
1
100
AcDbAlignedDimension
 13
99.99999999999999
 23
35
 33
0
 14
400
 24
35
 34
0
  0
DIMENSION
  5
1D0
100
AcDbEntity
  8
Dimention
  6
ByLayer
 62
  256
370
   -1
100
AcDbDimension
  2
*D2
 10
464.9999999999999
 20
80
 30
0
 11
432.4999999999999
 21
84.68749999999997
 31
0
 70
   33
 71
    5
  3
Standard
 53
0
210
0
220
0
230
1
100
AcDbAlignedDimension
 13
400
 23
100
 33
0
 14
464.9999999999999
 24
100.0000000000001
 34
0
  0
DIMENSION
  5
1D1
100
AcDbEntity
  8
Dimention
  6
ByLayer
 62
  256
370
   -1
100
AcDbDimension
  2
*D3
 10
500
 20
280.0000000000001
 30
0
 11
495.3125
 21
190.0000000000001
 31
0
 70
   33
 71
    5
  3
Standard
 53
0
210
0
220
0
230
1
100
AcDbAlignedDimension
 13
464.9999999999999
 23
100.0000000000001
 33
0
 14
464.9999999999999
 24
280.0000000000001
 34
0
  0
LINE
  5
1D2
100
AcDbEntity
  8
Line
  6
ByLayer
 62
  256
370
   -1
100
AcDbLine
 10
271.25
 20
161
 11
271.25
 21
179
  0
LINE
  5
1D3
100
AcDbEntity
  8
Line
  6
ByLayer
 62
  256
370
   -1
100
AcDbLine
 10
268.75
 20
179
 11
268.75
 21
161
  0
ARC
  5
1D4
100
AcDbEntity
  8
Line
  6
ByLayer
 62
  256
370
   -1
100
AcDbCircle
 10
270
 20
179
 40
1.25
100
AcDbArc
 50
0
 51
180
  0
ARC
  5
1D5
100
AcDbEntity
  8
Line
  6
ByLayer
 62
  256
370
   -1
100
AcDbCircle
 10
270
 20
161
 40
1.25
100
AcDbArc
 50
180
 51
0
  0
LINE
  5
1D6
100
AcDbEntity
  8
Line
  6
ByLayer
 62
  256
370
   -1
100
AcDbLine
 10
311.25
 20
161
 11
311.25
 21
179
  0
LINE
  5
1D7
100
AcDbEntity
  8
Line
  6
ByLayer
 62
  256
370
   -1
100
AcDbLine
 10
308.75
 20
179
 11
308.75
 21
161
  0
ARC
  5
1D8
100
AcDbEntity
  8
Line
  6
ByLayer
 62
  256
370
   -1
100
AcDbCircle
 10
310
 20
179
 40
1.25
100
AcDbArc
 50
0
 51
180
  0
ARC
  5
1D9
100
AcDbEntity
  8
Line
  6
ByLayer
 62
  256
370
   -1
100
AcDbCircle
 10
310
 20
161
 40
1.25
100
AcDbArc
 50
180
 51
0
  0
LINE
  5
1DA
100
AcDbEntity
  8
Line
  6
ByLayer
 62
  256
370
   -1
100
AcDbLine
 10
351.25
 20
161
 11
351.25
 21
179
  0
LINE
  5
1DB
100
AcDbEntity
  8
Line
  6
ByLayer
 62
  256
370
   -1
100
AcDbLine
 10
348.75
 20
179
 11
348.75
 21
161
  0
ARC
  5
1DC
100
AcDbEntity
  8
Line
  6
ByLayer
 62
  256
370
   -1
100
AcDbCircle
 10
350
 20
179
 40
1.25
100
AcDbArc
 50
0
 51
180
  0
ARC
  5
1DD
100
AcDbEntity
  8
Line
  6
ByLayer
 62
  256
370
   -1
100
AcDbCircle
 10
350
 20
161
 40
1.25
100
AcDbArc
 50
180
 51
0
  0
CIRCLE
  5
1DE
100
AcDbEntity
  8
Line
  6
ByLayer
 62
    1
370
   -1
100
AcDbCircle
 10
575
 20
255
 40
1.5
  0
CIRCLE
  5
1DF
100
AcDbEntity
  8
Line
  6
ByLayer
 62
    1
370
   -1
100
AcDbCircle
 10
825
 20
255
 40
1.5
  0
CIRCLE
  5
1E0
100
AcDbEntity
  8
Line
  6
ByLayer
 62
    1
370
   -1
100
AcDbCircle
 10
825
 20
125
 40
1.5
  0
CIRCLE
  5
1E1
100
AcDbEntity
  8
Line
  6
ByLayer
 62
    1
370
   -1
100
AcDbCircle
 10
575
 20
125
 40
1.5
  0
CIRCLE
  5
1E2
100
AcDbEntity
  8
Parts
  6
ByLayer
 62
  256
370
   -1
100
AcDbCircle
 10
170
 20
195
 40
48.5
  0
LINE
  5
1E3
100
AcDbEntity
  8
Line
  6
ByLayer
 62
  256
370
   -1
100
AcDbLine
 10
155
 20
240
 11
185
 21
240
  0
LINE
  5
1E4
100
AcDbEntity
  8
Line
  6
ByLayer
 62
  256
370
   -1
100
AcDbLine
 10
185
 20
236
 11
155
 21
236
  0
ARC
  5
1E5
100
AcDbEntity
  8
Line
  6
ByLayer
 62
  256
370
   -1
100
AcDbCircle
 10
155
 20
238
 40
2
100
AcDbArc
 50
90
 51
270
  0
ARC
  5
1E6
100
AcDbEntity
  8
Line
  6
ByLayer
 62
  256
370
   -1
100
AcDbCircle
 10
185
 20
238
 40
2
100
AcDbArc
 50
270
 51
90
  0
CIRCLE
  5
1E7
100
AcDbEntity
  8
Line
  6
ByLayer
 62
  256
370
   -1
100
AcDbCircle
 10
362
 20
321.5
 40
4.9
  0
CIRCLE
  5
1E8
100
AcDbEntity
  8
Line
  6
ByLayer
 62
  256
370
   -1
100
AcDbCircle
 10
380
 20
321.5
 40
4.9
  0
CIRCLE
  5
1E9
100
AcDbEntity
  8
Line
  6
ByLayer
 62
  256
370
   -1
100
AcDbCircle
 10
362
 20
303.5
 40
4.9
  0
CIRCLE
  5
1EA
100
AcDbEntity
  8
Line
  6
ByLayer
 62
  256
370
   -1
100
AcDbCircle
 10
380
 20
303.5
 40
4.9
  0
CIRCLE
  5
1EB
100
AcDbEntity
  8
Line
  6
ByLayer
 62
    5
370
   -1
100
AcDbCircle
 10
271.6
 20
197
 40
1.75
  0
CIRCLE
  5
1EC
100
AcDbEntity
  8
Line
  6
ByLayer
 62
    5
370
   -1
100
AcDbCircle
 10
290
 20
184.5
 40
1.75
  0
CIRCLE
  5
1ED
100
AcDbEntity
  8
Line
  6
ByLayer
 62
    5
370
   -1
100
AcDbCircle
 10
310
 20
215
 40
1.75
  0
CIRCLE
  5
1EE
100
AcDbEntity
  8
Line
  6
ByLayer
 62
  256
370
   -1
100
AcDbCircle
 10
126
 20
67.5
 40
4.2
  0
CIRCLE
  5
1EF
100
AcDbEntity
  8
Line
  6
ByLayer
 62
  256
370
   -1
100
AcDbCircle
 10
140
 20
67.5
 40
3.2
  0
CIRCLE
  5
1F0
100
AcDbEntity
  8
Line
  6
ByLayer
 62
  256
370
   -1
100
AcDbCircle
 10
320
 20
312.5
 40
3.2
  0
CIRCLE
  5
1F1
100
AcDbEntity
  8
Line
  6
ByLayer
 62
  256
370
   -1
100
AcDbCircle
 10
220
 20
312.5
 40
4.8
  0
CIRCLE
  5
1F2
100
AcDbEntity
  8
Line
  6
ByLayer
 62
  256
370
   -1
100
AcDbCircle
 10
238
 20
312.5
 40
4.8
  0
CIRCLE
  5
1F3
100
AcDbEntity
  8
Line
  6
ByLayer
 62
  256
370
   -1
100
AcDbCircle
 10
262
 20
312.5
 40
4.8
  0
CIRCLE
  5
1F4
100
AcDbEntity
  8
Line
  6
ByLayer
 62
  256
370
   -1
100
AcDbCircle
 10
280
 20
312.5
 40
4.8
  0
ENDSEC
  0
SECTION
  2
OBJECTS
  0
DICTIONARY
  5
C
330
0
100
AcDbDictionary
281
    1
  3
ACAD_GROUP
350
D
  0
DICTIONARY
  5
D
330
C
100
AcDbDictionary
281
    1
  0
ENDSEC
  0
EOF
